<?xml version="1.0" encoding="UTF-8" standalone="no"?>
<!-- Created with Inkscape (http://www.inkscape.org/) -->

<svg
   width="10.999999mm"
   height="10.999999mm"
   viewBox="0 0 11 10.999999"
   version="1.1"
   id="svg4576"
   inkscape:version="1.1.2 (0a00cf5339, 2022-02-04)"
   sodipodi:docname="buds_pro_right.svg"
   xmlns:inkscape="http://www.inkscape.org/namespaces/inkscape"
   xmlns:sodipodi="http://sodipodi.sourceforge.net/DTD/sodipodi-0.dtd"
   xmlns="http://www.w3.org/2000/svg"
   xmlns:svg="http://www.w3.org/2000/svg">
  <sodipodi:namedview
     id="namedview4578"
     pagecolor="#ffffff"
     bordercolor="#666666"
     borderopacity="1.0"
     inkscape:pageshadow="2"
     inkscape:pageopacity="0.0"
     inkscape:pagecheckerboard="0"
     inkscape:document-units="mm"
     showgrid="false"
     fit-margin-top="0"
     fit-margin-bottom="0"
     fit-margin-left="0"
     fit-margin-right="0"
     inkscape:zoom="11.313709"
     inkscape:cx="36.63697"
     inkscape:cy="29.831067"
     inkscape:window-width="1920"
     inkscape:window-height="1035"
     inkscape:window-x="0"
     inkscape:window-y="45"
     inkscape:window-maximized="1"
     inkscape:current-layer="layer1"
     showguides="true"
     inkscape:guide-bbox="true">
    <sodipodi:guide
       position="1.2413708,6.0162603"
       orientation="0,-1"
       id="guide34430" />
  </sodipodi:namedview>
  <defs
     id="defs4573" />
  <g
     inkscape:label="Layer 1"
     inkscape:groupmode="layer"
     id="layer1"
     transform="translate(-85.996183,-154.42373)">
    <g
       aria-label="R"
       id="text28286"
       style="font-style:italic;font-size:4.23333px;line-height:124%;font-family:Sans;-inkscape-font-specification:'Sans Italic';letter-spacing:0px;word-spacing:0px;stroke-width:0.299542px"
       transform="matrix(0.88023484,0,0,0.88636119,10.922244,18.114874)">
      <path
         id="path61769"
         style="font-size:4.23333px;line-height:124%;font-family:Sans;-inkscape-font-specification:Sans;letter-spacing:0px;word-spacing:0px;stroke:#000000;stroke-width:0.299542px"
         d="m 91.7518,157.96053 q 0.134359,0.0455 0.260449,0.1943 0.128158,0.14883 0.256315,0.40928 l 0.423747,0.84336 h -0.448552 l -0.394807,-0.79169 q -0.152962,-0.31005 -0.297656,-0.41134 -0.142627,-0.10128 -0.390674,-0.10128 H 90.70587 v 1.30431 h -0.417545 v -3.08612 h 0.942577 q 0.529166,0 0.789615,0.22118 0.260449,0.22117 0.260449,0.66766 0,0.29145 -0.136425,0.48369 -0.134359,0.19223 -0.392741,0.26665 z m -1.04593,-1.29605 v 1.09554 h 0.525032 q 0.30179,0 0.454752,-0.13849 0.15503,-0.14056 0.15503,-0.41134 0,-0.27079 -0.15503,-0.40721 -0.152962,-0.1385 -0.454752,-0.1385 z m 1.432917,8.30872 c -0.405432,-0.16828 -0.934338,-0.60499 -1.100286,-0.9085 -0.08215,-0.15028 -0.02898,-0.15162 0.53982,-0.0135 1.118385,0.27146 1.909867,0.0101 2.620416,-0.8679 0.296193,-0.36567 0.335853,-0.50221 0.386124,-1.32944 l 0.05601,-0.92191 0.291411,0.34503 c 0.934148,1.10606 0.521917,2.98625 -0.796913,3.63487 -0.555624,0.27326 -1.421972,0.29991 -1.996603,0.0614 z m -0.98681,-1.31781 c -1.111824,-0.41974 -2.806926,-1.8858 -3.175801,-2.74666 -0.889675,-2.0763 0.135483,-4.85628 2.125836,-5.76475 0.915942,-0.41805 2.032389,-0.43513 2.806137,-0.0429 1.648492,0.83564 2.39276,3.22007 1.663613,5.32971 -0.109743,0.31753 -0.200605,0.8701 -0.2019,1.22797 -0.0057,1.3901 -0.763024,2.1969 -2.065267,2.19829 -0.346714,3.8e-4 -0.851416,-0.0879 -1.152618,-0.20163 z m 2.498327,1.68859 c 0.615631,-0.14579 0.985134,-0.36923 1.392423,-0.84202 0.688578,-0.79928 0.826314,-2.00447 0.33991,-2.97429 -0.153562,-0.3062 -0.365914,-0.60283 -0.471897,-0.65918 -0.179304,-0.0953 -0.181361,-0.13416 -0.02965,-0.55873 0.400029,-1.11956 0.237925,-2.83867 -0.372776,-3.95353 -0.373514,-0.68188 -1.185013,-1.40282 -1.821627,-1.61833 -1.267129,-0.42899 -3.044181,0.048 -3.932276,1.05525 -1.376461,1.56132 -1.736294,3.62997 -0.928459,5.33754 0.271153,0.57314 1.380895,1.68909 2.188066,2.20031 0.390272,0.24715 0.641063,0.50037 0.770097,0.77751 0.421974,0.90634 1.781479,1.49234 2.86619,1.23547 z" />
    </g>
    <g
       id="g3227"
       transform="translate(2.1600298e-4,2.9611944e-4)">
      <path
         style="fill:#000000;stroke:#000000;stroke-width:0.4;stroke-miterlimit:4;stroke-dasharray:none;stroke-opacity:1"
         d="m 91.29092,160.58104 c -0.03116,-0.0812 -0.399381,-0.2858 -0.818345,-0.45477 -0.849311,-0.34253 -1.068608,-0.31031 -1.068608,0.15703 0,0.24663 0.06281,0.29752 0.709484,0.57453 0.864443,0.37031 0.947778,0.40745 1.058024,0.18934 0.110245,-0.21811 0.150577,-0.38498 0.119445,-0.46613 z"
         id="path3121"
         sodipodi:nodetypes="cssccc" />
    </g>
  </g>
</svg>
