<?xml version="1.0" encoding="UTF-8" standalone="no"?>
<svg
   xmlns:dc="http://purl.org/dc/elements/1.1/"
   xmlns:cc="http://creativecommons.org/ns#"
   xmlns:rdf="http://www.w3.org/1999/02/22-rdf-syntax-ns#"
   xmlns:svg="http://www.w3.org/2000/svg"
   xmlns="http://www.w3.org/2000/svg"
   xmlns:sodipodi="http://sodipodi.sourceforge.net/DTD/sodipodi-0.dtd"
   xmlns:inkscape="http://www.inkscape.org/namespaces/inkscape"
   inkscape:version="1.0 (4035a4fb49, 2020-05-01)"
   sodipodi:docname="calendar_today-24px-1.svg"
   id="svg6"
   version="1.1"
   width="24"
   viewBox="0 0 24 24"
   height="24">
  <metadata
     id="metadata12">
    <rdf:RDF>
      <cc:Work
         rdf:about="">
        <dc:format>image/svg+xml</dc:format>
        <dc:type
           rdf:resource="http://purl.org/dc/dcmitype/StillImage" />
        <dc:title></dc:title>
      </cc:Work>
    </rdf:RDF>
  </metadata>
  <defs
     id="defs10" />
  <sodipodi:namedview
     inkscape:current-layer="svg6"
     inkscape:window-maximized="1"
     inkscape:window-y="38"
     inkscape:window-x="0"
     inkscape:cy="14.262503"
     inkscape:cx="14.320308"
     inkscape:zoom="22.185475"
     showgrid="false"
     id="namedview8"
     inkscape:window-height="1042"
     inkscape:window-width="1920"
     inkscape:pageshadow="2"
     inkscape:pageopacity="0"
     guidetolerance="10"
     gridtolerance="10"
     objecttolerance="10"
     borderopacity="1"
     bordercolor="#666666"
     pagecolor="#ffffff" />
  <path
     id="path2"
     fill="none"
     d="M0 0h24v24H0V0z" />
  <path
     id="path4"
     d="m 20.018677,3 h -1 V 1 h -2 V 3 H 7.0186774 V 1 h -2 v 2 h -1 c -1.1,0 -2,0.9 -2,2 v 16 c 0,1.1 0.9,2 2,2 H 20.018677 c 1.1,0 2,-0.9 2,-2 V 5 c 0,-1.1 -0.9,-2 -2,-2 z m 0,18 H 4.0186774 V 10 H 20.018677 Z m 0,-13 H 4.0186774 V 5 H 20.018677 Z" />
  <path
     style="stroke-width:0.999998"
     d="m 12.018677,11.629269 v -1.465936 l -1.954583,1.954582 1.954583,1.954582 v -1.465936 c 1.617417,0 2.931873,1.314456 2.931873,2.931873 0,0.493532 -0.122161,0.962632 -0.342052,1.368207 l 0.713423,0.713423 c 0.381143,-0.601034 0.60592,-1.314457 0.60592,-2.08163 0,-2.159814 -1.749351,-3.909165 -3.909164,-3.909165 z m 0,6.841038 c -1.617417,0 -2.9318731,-1.314456 -2.9318731,-2.931873 0,-0.493532 0.1221614,-0.962632 0.3420519,-1.368208 L 8.7154333,13.456804 c -0.3811435,0.601034 -0.6059204,1.314456 -0.6059204,2.08163 0,2.159813 1.7493508,3.909164 3.9091641,3.909164 v 1.465937 l 1.954582,-1.954583 -1.954582,-1.954582 z"
     id="path4-3" />
</svg>
