<?xml version="1.0" encoding="UTF-8" standalone="no"?>
<svg
   xmlns:dc="http://purl.org/dc/elements/1.1/"
   xmlns:cc="http://creativecommons.org/ns#"
   xmlns:rdf="http://www.w3.org/1999/02/22-rdf-syntax-ns#"
   xmlns:svg="http://www.w3.org/2000/svg"
   xmlns="http://www.w3.org/2000/svg"
   xmlns:sodipodi="http://sodipodi.sourceforge.net/DTD/sodipodi-0.dtd"
   xmlns:inkscape="http://www.inkscape.org/namespaces/inkscape"
   enable-background="new 0 0 24 24"
   height="24"
   viewBox="0 0 24 24"
   width="24"
   version="1.1"
   id="svg10"
   sodipodi:docname="filter_alt_plus.svg"
   inkscape:version="1.0 (4035a4fb49, 2020-05-01)">
  <metadata
     id="metadata16">
    <rdf:RDF>
      <cc:Work
         rdf:about="">
        <dc:format>image/svg+xml</dc:format>
        <dc:type
           rdf:resource="http://purl.org/dc/dcmitype/StillImage" />
        <dc:title />
      </cc:Work>
    </rdf:RDF>
  </metadata>
  <defs
     id="defs14" />
  <sodipodi:namedview
     inkscape:document-rotation="0"
     pagecolor="#ffffff"
     bordercolor="#666666"
     borderopacity="1"
     objecttolerance="10"
     gridtolerance="10"
     guidetolerance="10"
     inkscape:pageopacity="0"
     inkscape:pageshadow="2"
     inkscape:window-width="1920"
     inkscape:window-height="1042"
     id="namedview12"
     showgrid="false"
     inkscape:zoom="22.185475"
     inkscape:cx="11.10688"
     inkscape:cy="13.735124"
     inkscape:window-x="0"
     inkscape:window-y="38"
     inkscape:window-maximized="1"
     inkscape:current-layer="svg10" />
  <g
     id="g8">
    <path
       d="M0,0h24 M24,24H0"
       fill="none"
       id="path2" />
    <path
       d="M 5.0390625 4 C 4.2090625 4 3.74 4.949375 4.25 5.609375 C 6.27 8.199375 10 13 10 13 L 10 19 C 10 19.55 10.45 20 11 20 L 13 20 C 13.55 20 14 19.55 14 19 L 14 13 C 14 13 14.561178 12.276632 14.648438 12.164062 A 6.0985484 6.0985484 0 0 1 13.175781 10.810547 L 11.990234 12.300781 L 7 6 L 11.978516 6 A 6.0985484 6.0985484 0 0 1 12.707031 4 L 5.0390625 4 z "
       id="path4" />
    <path
       d="M0,0h24v24H0V0z"
       fill="none"
       id="path6" />
  </g>
  <g
     aria-label="+"
     transform="matrix(2.3775617,0,0,2.3738594,-12.403443,-12.287874)"
     id="text843"
     style="font-style:italic;font-variant:normal;font-weight:normal;font-stretch:normal;font-size:6.38504px;line-height:124%;font-family:Sans;-inkscape-font-specification:'Sans Italic';letter-spacing:0px;word-spacing:0px;fill:#000000;fill-opacity:1;stroke:none;stroke-width:0.420925px;stroke-linecap:butt;stroke-linejoin:miter;stroke-opacity:1">
    <path
       d="m 12.25254,6.4481113 v 1.7365562 h 1.736556 V 8.7146757 H 12.25254 V 10.451232 H 11.728767 V 8.7146757 H 9.9922108 V 8.1846675 H 11.728767 V 6.4481113 Z"
       style="font-style:normal;font-variant:normal;font-weight:normal;font-stretch:normal;font-size:6.38504px;font-family:Sans;-inkscape-font-specification:'Sans, Normal';font-variant-ligatures:normal;font-variant-caps:normal;font-variant-numeric:normal;font-variant-east-asian:normal;stroke-width:0.420925px"
       id="path835" />
  </g>
</svg>
