<?xml version="1.0" encoding="UTF-8" standalone="no"?>
<svg
   xmlns:dc="http://purl.org/dc/elements/1.1/"
   xmlns:cc="http://creativecommons.org/ns#"
   xmlns:rdf="http://www.w3.org/1999/02/22-rdf-syntax-ns#"
   xmlns:svg="http://www.w3.org/2000/svg"
   xmlns="http://www.w3.org/2000/svg"
   xmlns:sodipodi="http://sodipodi.sourceforge.net/DTD/sodipodi-0.dtd"
   xmlns:inkscape="http://www.inkscape.org/namespaces/inkscape"
   height="24"
   viewBox="0 0 23.999999 24"
   width="24"
   fill="#000000"
   version="1.1"
   id="svg1360"
   sodipodi:docname="gps_edit.svg"
   inkscape:version="1.0.2 (e86c870879, 2021-01-15)">
  <metadata
     id="metadata1366">
    <rdf:RDF>
      <cc:Work
         rdf:about="">
        <dc:format>image/svg+xml</dc:format>
        <dc:type
           rdf:resource="http://purl.org/dc/dcmitype/StillImage" />
        <dc:title />
      </cc:Work>
    </rdf:RDF>
  </metadata>
  <defs
     id="defs1364" />
  <sodipodi:namedview
     pagecolor="#ffffff"
     bordercolor="#666666"
     borderopacity="1"
     objecttolerance="10"
     gridtolerance="10"
     guidetolerance="10"
     inkscape:pageopacity="0"
     inkscape:pageshadow="2"
     inkscape:window-width="1920"
     inkscape:window-height="1042"
     id="namedview1362"
     showgrid="false"
     inkscape:zoom="22.627417"
     inkscape:cx="16.91793"
     inkscape:cy="12.554585"
     inkscape:window-x="0"
     inkscape:window-y="38"
     inkscape:window-maximized="1"
     inkscape:current-layer="svg1360"
     inkscape:document-rotation="0" />
  <path
     d="M 0,0 H 24 V 23.999999 H 0 Z"
     fill="none"
     id="path1356" />
  <path
     id="path1358"
     d="M 11 1 L 11 3.0605469 C 6.83 3.5205469 3.5205469 6.8300004 3.0605469 11 L 1 11 L 1 13 L 3.0605469 13 C 3.1662398 13.958129 3.428073 14.867751 3.8105469 15.710938 L 5.3476562 14.171875 C 5.1249836 13.487952 5 12.758847 5 12 C 5 8.1300004 8.13 5 12 5 C 12.757962 5 13.486688 5.1235288 14.169922 5.3457031 L 15.707031 3.8085938 C 14.864949 3.4271153 13.956627 3.166074 13 3.0605469 L 13 1 L 11 1 z M 20.1875 8.2851562 L 18.650391 9.8203125 C 18.874661 10.50644 19 11.238321 19 12 C 19 15.869999 15.87 19 12 19 C 11.235489 19 10.500828 18.87431 9.8125 18.648438 L 8.2753906 20.183594 C 9.1223377 20.569471 10.036747 20.833195 11 20.939453 L 11 23 L 13 23 L 13 20.939453 C 17.17 20.479453 20.479453 17.17 20.939453 13 L 23 13 L 23 11 L 20.939453 11 C 20.833594 10.040369 20.57097 9.1294462 20.1875 8.2851562 z " />
  <path
     d="M 4.6773789,-4.5166116 H 28.677379 V 19.483388 H 4.6773789 Z"
     fill="none"
     id="path1344" />
  <path
     d="m 14.05875,9.0199994 0.92,0.92 -9.0600003,9.0599996 h -0.92 v -0.92 L 14.05875,9.0199993 m 3.6,-6.0199997 c -0.25,0 -0.51,0.1 -0.7,0.29 l -1.83,1.83 3.75,3.7499997 1.83,-1.8299997 c 0.39,-0.39 0.39,-1.02 0,-1.41 l -2.34,-2.34 c -0.2,-0.2 -0.45,-0.29 -0.71,-0.29 z m -3.6,3.19 L 2.9987497,17.249999 v 3.75 h 3.75 L 17.80875,9.9399994 Z"
     id="path948" />
</svg>
