<?xml version="1.0" encoding="UTF-8" standalone="no"?>
<!-- Created with Inkscape (http://www.inkscape.org/) -->

<svg
   width="40mm"
   height="40mm"
   viewBox="0 0 40.000001 39.999999"
   version="1.1"
   id="svg5"
   inkscape:version="1.1.1 (3bf5ae0d25, 2021-09-20)"
   sodipodi:docname="ic_device_galaxy_buds.svg"
   xmlns:inkscape="http://www.inkscape.org/namespaces/inkscape"
   xmlns:sodipodi="http://sodipodi.sourceforge.net/DTD/sodipodi-0.dtd"
   xmlns="http://www.w3.org/2000/svg"
   xmlns:svg="http://www.w3.org/2000/svg">
  <sodipodi:namedview
     id="namedview7"
     pagecolor="#ffffff"
     bordercolor="#666666"
     borderopacity="1.0"
     inkscape:pageshadow="2"
     inkscape:pageopacity="0.0"
     inkscape:pagecheckerboard="0"
     inkscape:document-units="mm"
     showgrid="false"
     inkscape:zoom="2.5407127"
     inkscape:cx="32.471204"
     inkscape:cy="54.512264"
     inkscape:window-width="1920"
     inkscape:window-height="1035"
     inkscape:window-x="0"
     inkscape:window-y="45"
     inkscape:window-maximized="1"
     inkscape:current-layer="layer1" />
  <defs
     id="defs2" />
  <g
     inkscape:label="Layer 1"
     inkscape:groupmode="layer"
     id="layer1"
     transform="translate(-106.33137,-119.64791)">
    <rect
       style="fill:#4dabf5;fill-opacity:1;stroke:none;stroke-width:0.5;stroke-linecap:round;stroke-linejoin:round;stroke-miterlimit:4;stroke-dasharray:none;stroke-opacity:1;paint-order:fill markers stroke;stop-color:#000000"
       id="rect11523"
       width="30"
       height="30"
       x="111.33137"
       y="124.64791"
       ry="2.4056475" />
    <g
       id="g12091"
       transform="matrix(0.66666666,0,0,0.66666666,77.011931,48.318237)"
       style="stroke-width:1.35;stroke-miterlimit:4;stroke-dasharray:none">
      <g
         id="g12078"
         style="stroke-width:1.35;stroke-miterlimit:4;stroke-dasharray:none">
        <path
           style="fill:none;fill-rule:evenodd;stroke:#fcffff;stroke-width:1.35;stroke-linecap:butt;stroke-linejoin:miter;stroke-miterlimit:4;stroke-dasharray:none;stroke-opacity:1"
           d="m 89.229326,149.75243 c 1.422876,1.97773 0.400592,5.02874 -3.539949,5.03091"
           id="path10585-6"
           sodipodi:nodetypes="cc" />
        <path
           style="fill:none;fill-rule:evenodd;stroke:#fcffff;stroke-width:1.35;stroke-linecap:butt;stroke-linejoin:miter;stroke-miterlimit:4;stroke-dasharray:none;stroke-opacity:1"
           d="m 85.608172,141.34954 c -2.666757,-1.07007 -4.567397,-1.03074 -7.019236,-0.32613 -1.148282,0.32999 -2.049576,1.68227 -2.142569,2.8734 -0.428995,5.49489 2.903496,8.17341 6.263367,7.93085 2.05934,-0.14867 4.130587,-2.74489 4.627575,-5.01288 0.41816,-1.90826 0.08389,-4.73774 -1.729137,-5.46524 z"
           id="path5256-7"
           sodipodi:nodetypes="ssssss" />
        <path
           style="fill:none;stroke:#fcffff;stroke-width:1.35;stroke-miterlimit:4;stroke-dasharray:none;stroke-opacity:1"
           d="m 83.287036,138.80034 c -3.534371,-0.50931 -7.153563,0.99406 -8.625608,4.36799 -1.972926,4.52216 0.871682,11.86623 6.124093,12.64208 9.667201,1.42779 12.807218,-15.52506 2.501515,-17.01007"
           id="path3567-5" />
      </g>
      <path
         style="fill:none;stroke:#fcffff;stroke-width:1.35;stroke-miterlimit:4;stroke-dasharray:none;stroke-opacity:1"
         d="m 81.17037,134.62224 c 1.528272,0.40147 2.479848,2.50023 3.65606,3.48042 1.57278,1.31064 3.329209,2.02976 4.365471,3.91113 0.788477,1.43151 0.572308,3.47576 1.409777,4.73562 0.43788,0.65873 1.309196,0.96445 1.803823,1.61735 1.540471,2.03338 1.370542,5.10243 -0.479425,6.88871 -1.219739,1.17764 -3.141402,1.6612 -4.790555,1.28077 -0.702868,-0.16221 -1.380432,-0.74583 -2.116667,-0.68541 -1.719445,0.14105 -2.786803,0.97944 -4.618181,0.50261 -6.467763,-1.6839 -8.890577,-9.24373 -7.458556,-15.10934 0.757382,-3.10205 4.540443,-7.59068 8.228253,-6.62186"
         id="path3559-3" />
    </g>
    <path
       style="fill:none;stroke:#fcffff;stroke-width:0.999996;stroke-miterlimit:4;stroke-dasharray:none;stroke-opacity:1"
       d="m 122.30295,126.33466 c -1.01885,0.26765 -1.65323,1.66683 -2.43737,2.32029 -1.04852,0.87375 -2.21948,1.35316 -2.91032,2.60741 -0.52565,0.95434 -0.38154,2.31718 -0.93985,3.15709 -0.29192,0.43915 -0.8728,0.64296 -1.20255,1.07824 -1.02698,1.35557 -0.91369,3.40161 0.31962,4.59246 0.81316,0.78509 2.09427,1.10747 3.1937,0.85385 0.46858,-0.10813 0.92029,-0.49721 1.41111,-0.45694 1.1463,0.094 1.85787,0.65296 3.07879,0.33508 4.31184,-1.1226 5.92705,-6.16249 4.97237,-10.0729 -0.50492,-2.06804 -3.02696,-5.06045 -5.4855,-4.41458"
       id="path3559" />
    <path
       style="fill:none;fill-rule:evenodd;stroke:#fcffff;stroke-width:0.999996;stroke-linecap:butt;stroke-linejoin:miter;stroke-miterlimit:4;stroke-dasharray:none;stroke-opacity:1"
       d="m 116.93031,136.42146 c -0.94858,1.31848 -0.26706,3.35249 2.35997,3.35394"
       id="path10585"
       sodipodi:nodetypes="cc" />
    <path
       style="fill:none;fill-rule:evenodd;stroke:#fcffff;stroke-width:0.999996;stroke-linecap:butt;stroke-linejoin:miter;stroke-miterlimit:4;stroke-dasharray:none;stroke-opacity:1"
       d="m 119.34442,130.81954 c 1.77783,-0.71339 3.04493,-0.68717 4.67949,-0.21743 0.76552,0.22 1.36638,1.12151 1.42838,1.9156 0.28599,3.66326 -1.93567,5.44894 -4.17558,5.28724 -1.3729,-0.0991 -2.75373,-1.82993 -3.08505,-3.34193 -0.27878,-1.27217 -0.0559,-3.1585 1.15276,-3.64348 z"
       id="path5256"
       sodipodi:nodetypes="ssssss" />
    <path
       style="fill:none;stroke:#fcffff;stroke-width:0.999996;stroke-miterlimit:4;stroke-dasharray:none;stroke-opacity:1"
       d="m 120.89184,129.12006 c 2.35625,-0.33954 4.76904,0.66271 5.7504,2.912 1.31529,3.01478 -0.58112,7.91081 -4.08272,8.42805 -6.4448,0.95186 -8.53815,-10.35004 -1.66768,-11.34005"
       id="path3567" />
    <rect
       style="fill:none;fill-opacity:1;stroke:none;stroke-width:1;stroke-linecap:round;stroke-linejoin:round;stroke-miterlimit:4;stroke-dasharray:none;paint-order:fill markers stroke;stop-color:#000000"
       id="rect14099"
       width="40"
       height="40"
       x="106.33137"
       y="119.64791" />
  </g>
</svg>
