<?xml version="1.0" encoding="UTF-8" standalone="no"?>
<svg
   xmlns:dc="http://purl.org/dc/elements/1.1/"
   xmlns:cc="http://creativecommons.org/ns#"
   xmlns:rdf="http://www.w3.org/1999/02/22-rdf-syntax-ns#"
   xmlns:svg="http://www.w3.org/2000/svg"
   xmlns="http://www.w3.org/2000/svg"
   xmlns:sodipodi="http://sodipodi.sourceforge.net/DTD/sodipodi-0.dtd"
   xmlns:inkscape="http://www.inkscape.org/namespaces/inkscape"
   height="24"
   viewBox="0 0 24.170443 24"
   width="24.170443"
   version="1.1"
   id="svg6"
   sodipodi:docname="ic_distance.svg"
   inkscape:version="1.0.1 (3bc2e813f5, 2020-09-07)">
  <metadata
     id="metadata12">
    <rdf:RDF>
      <cc:Work
         rdf:about="">
        <dc:format>image/svg+xml</dc:format>
        <dc:type
           rdf:resource="http://purl.org/dc/dcmitype/StillImage" />
        <dc:title></dc:title>
      </cc:Work>
    </rdf:RDF>
  </metadata>
  <defs
     id="defs10" />
  <sodipodi:namedview
     pagecolor="#ffffff"
     bordercolor="#666666"
     borderopacity="1"
     objecttolerance="10"
     gridtolerance="10"
     guidetolerance="10"
     inkscape:pageopacity="0"
     inkscape:pageshadow="2"
     inkscape:window-width="1920"
     inkscape:window-height="1042"
     id="namedview8"
     showgrid="false"
     inkscape:snap-others="false"
     inkscape:object-nodes="false"
     inkscape:zoom="26.103965"
     inkscape:cx="22.380713"
     inkscape:cy="6.9428897"
     inkscape:window-x="0"
     inkscape:window-y="38"
     inkscape:window-maximized="1"
     inkscape:current-layer="svg6"
     inkscape:document-rotation="0"
     lock-margins="true"
     fit-margin-top="2.5"
     fit-margin-left="2.5"
     fit-margin-right="2.5"
     fit-margin-bottom="2.5" />
  <path
     d="M 1.7281728,0.0307995 H 25.728173 V 24.030799 H 1.7281728 Z"
     fill="none"
     id="path2" />
  <g
     id="g3324"
     transform="matrix(1,0,0,1.0133493,2.5,2.097751)"
     style="stroke-width:0.993391">
    <path
       d="m 6.0804285,11.546119 c -0.8360589,0 -1.5201071,-0.684048 -1.5201071,-1.520107 0,-0.8360578 0.6840483,-1.5201055 1.5201071,-1.5201055 0.836059,0 1.5201069,0.6840477 1.5201069,1.5201055 0,0.836059 -0.6840479,1.520107 -1.5201069,1.520107 z M 10.64075,10.178023 c 0,-2.7589943 -2.0141423,-4.712332 -4.5603215,-4.712332 -2.5461794,0 -4.5603214,1.9533377 -4.5603214,4.712332 0,1.778525 1.4821045,4.134691 4.5603214,6.94689 3.0782168,-2.812199 4.5603215,-5.168365 4.5603215,-6.94689 z M 6.0804285,3.9455838 c 3.1922253,0 6.0804285,2.4473729 6.0804285,6.2324392 0,2.523378 -2.029343,5.510388 -6.0804285,8.968632 C 2.029343,15.688411 0,12.701401 0,10.178023 0,6.3929567 2.8882037,3.9455838 6.0804285,3.9455838 Z"
       id="path4"
       style="stroke-width:0.993391" />
    <path
       d="m 16.105923,4.2275996 c -0.421371,0 -0.76613,-0.344759 -0.76613,-0.76613 0,-0.4213716 0.344759,-0.7661296 0.76613,-0.7661296 0.421372,0 0.76613,0.344758 0.76613,0.7661296 0,0.421371 -0.344758,0.76613 -0.76613,0.76613 z m 2.29839,-0.689517 c 0,-1.3905256 -1.015122,-2.3750026 -2.29839,-2.3750026 -1.283268,0 -2.29839,0.984477 -2.29839,2.3750026 0,0.896372 0.746977,2.083873 2.29839,3.501214 1.551413,-1.417341 2.29839,-2.604842 2.29839,-3.501214 z m -2.29839,-3.14113259 c 1.608873,0 3.06452,1.23346899 3.06452,3.14113259 0,1.271776 -1.022784,2.777221 -3.06452,4.520167 -2.041736,-1.742946 -3.06452,-3.248391 -3.06452,-4.520167 0,-1.9076636 1.455647,-3.14113259 3.06452,-3.14113259 z"
       id="path4-3"
       style="stroke-width:0.99339" />
    <path
       style="fill:none;fill-rule:evenodd;stroke:#000000;stroke-width:0.993391;stroke-linecap:butt;stroke-linejoin:miter;stroke-miterlimit:4;stroke-dasharray:none;stroke-dashoffset:0;stroke-opacity:1"
       d="M 8.399119,18.046615 C 25.927241,13.211774 8.3489042,11.251336 15.01982,7.7851976"
       id="path852"
       sodipodi:nodetypes="cc" />
  </g>
</svg>
