<?xml version="1.0" encoding="UTF-8" standalone="no"?>
<!-- Created with Inkscape (http://www.inkscape.org/) -->

<svg
   width="22.722673mm"
   height="24.000002mm"
   viewBox="0 0 22.722673 24.000002"
   version="1.1"
   id="svg1002"
   inkscape:version="1.1.1 (3bf5ae0d25, 2021-09-20)"
   sodipodi:docname="ic_galaxy_buds_r.svg"
   xmlns:inkscape="http://www.inkscape.org/namespaces/inkscape"
   xmlns:sodipodi="http://sodipodi.sourceforge.net/DTD/sodipodi-0.dtd"
   xmlns="http://www.w3.org/2000/svg"
   xmlns:svg="http://www.w3.org/2000/svg">
  <sodipodi:namedview
     id="namedview1004"
     pagecolor="#ffffff"
     bordercolor="#666666"
     borderopacity="1.0"
     inkscape:pageshadow="2"
     inkscape:pageopacity="0.0"
     inkscape:pagecheckerboard="0"
     inkscape:document-units="mm"
     showgrid="false"
     fit-margin-left="2"
     fit-margin-top="2"
     fit-margin-right="2"
     fit-margin-bottom="2"
     inkscape:zoom="5.0814254"
     inkscape:cx="66.024782"
     inkscape:cy="37.292686"
     inkscape:window-width="1920"
     inkscape:window-height="1035"
     inkscape:window-x="0"
     inkscape:window-y="45"
     inkscape:window-maximized="1"
     inkscape:current-layer="layer1" />
  <defs
     id="defs999" />
  <g
     inkscape:label="Layer 1"
     inkscape:groupmode="layer"
     id="layer1"
     transform="translate(2.0000914,1.9999036)">
    <g
       id="g12091"
       transform="matrix(0.88927548,0,0,0.8958785,-64.445881,-120.41835)"
       style="display:inline;stroke:#000000;stroke-width:1.1203592;stroke-miterlimit:4;stroke-dasharray:none;stroke-opacity:1">
      <g
         id="g12078"
         style="stroke:#000000;stroke-width:1.1203592;stroke-miterlimit:4;stroke-dasharray:none;stroke-opacity:1">
        <path
           style="fill:none;fill-rule:evenodd;stroke:#000000;stroke-width:1.1203592;stroke-linecap:butt;stroke-linejoin:miter;stroke-miterlimit:4;stroke-dasharray:none;stroke-opacity:1"
           d="m 89.229326,149.75243 c 1.422876,1.97773 0.400592,5.02874 -3.539949,5.03091"
           id="path10585-6"
           sodipodi:nodetypes="cc" />
        <path
           style="fill:none;fill-rule:evenodd;stroke:#000000;stroke-width:1.1203592;stroke-linecap:butt;stroke-linejoin:miter;stroke-miterlimit:4;stroke-dasharray:none;stroke-opacity:1"
           d="m 85.608172,141.34954 c -2.666757,-1.07007 -4.567397,-1.03074 -7.019236,-0.32613 -1.148282,0.32999 -2.049576,1.68227 -2.142569,2.8734 -0.428995,5.49489 2.903496,8.17341 6.263367,7.93085 2.05934,-0.14867 4.130587,-2.74489 4.627575,-5.01288 0.41816,-1.90826 0.08389,-4.73774 -1.729137,-5.46524 z"
           id="path5256-7"
           sodipodi:nodetypes="ssssss" />
        <path
           style="fill:none;stroke:#000000;stroke-width:1.1203592;stroke-miterlimit:4;stroke-dasharray:none;stroke-opacity:1"
           d="m 83.287036,138.80034 c -3.534371,-0.50931 -7.153563,0.99406 -8.625608,4.36799 -1.972926,4.52216 0.871682,11.86623 6.124093,12.64208 9.667201,1.42779 12.807218,-15.52506 2.501515,-17.01007"
           id="path3567-5" />
      </g>
      <path
         style="fill:none;stroke:#000000;stroke-width:1.1203592;stroke-miterlimit:4;stroke-dasharray:none;stroke-opacity:1"
         d="m 81.17037,134.62224 c 1.528272,0.40147 2.479848,2.50023 3.65606,3.48042 1.57278,1.31064 3.329209,2.02976 4.365471,3.91113 0.788477,1.43151 0.572308,3.47576 1.409777,4.73562 0.43788,0.65873 1.309196,0.96445 1.803823,1.61735 1.540471,2.03338 1.370542,5.10243 -0.479425,6.88871 -1.219739,1.17764 -3.141402,1.6612 -4.790555,1.28077 -0.702868,-0.16221 -1.380432,-0.74583 -2.116667,-0.68541 -1.719445,0.14105 -2.786803,0.97944 -4.618181,0.50261 -6.467763,-1.6839 -8.890577,-9.24373 -7.458556,-15.10934 0.757382,-3.10205 4.540443,-7.59068 8.228253,-6.62186"
         id="path3559-3" />
    </g>
    <g
       aria-label="R"
       id="text20823"
       style="font-size:7.05556px;line-height:124%;font-family:Sans;-inkscape-font-specification:Sans;letter-spacing:0px;word-spacing:0px;stroke:#000000;stroke-width:0.264583px">
      <path
         d="m 9.0560585,10.458658 q 0.2239314,0.07579 0.4340823,0.32384 0.2135961,0.248047 0.4271921,0.682129 l 0.7062451,1.4056 H 9.8759918 L 9.2179781,11.550754 Q 8.9630409,11.03399 8.721884,10.86518 8.4841723,10.69637 8.0707606,10.69637 H 7.3128391 v 2.173857 H 6.6169293 V 7.726696 h 1.5709646 q 0.881945,0 1.3160273,0.3686254 0.4340823,0.3686255 0.4340823,1.1127666 0,0.4857588 -0.2273764,0.806153 -0.2239314,0.320394 -0.6545686,0.444417 z M 7.3128391,8.2985822 v 1.8259018 h 0.8750548 q 0.5029843,0 0.7579215,-0.2308216 0.2583823,-0.2342666 0.2583823,-0.6855744 0,-0.4513078 -0.2583823,-0.6786843 Q 8.6908782,8.2985822 8.1878939,8.2985822 Z"
         id="path21707" />
    </g>
  </g>
</svg>
