<?xml version="1.0" encoding="UTF-8" standalone="no"?>
<svg
   xmlns:dc="http://purl.org/dc/elements/1.1/"
   xmlns:cc="http://creativecommons.org/ns#"
   xmlns:rdf="http://www.w3.org/1999/02/22-rdf-syntax-ns#"
   xmlns:svg="http://www.w3.org/2000/svg"
   xmlns="http://www.w3.org/2000/svg"
   xmlns:sodipodi="http://sodipodi.sourceforge.net/DTD/sodipodi-0.dtd"
   xmlns:inkscape="http://www.inkscape.org/namespaces/inkscape"
   enable-background="new 0 0 24 24"
   height="24"
   viewBox="0 0 24 24"
   width="24"
   version="1.1"
   id="svg1685"
   sodipodi:docname="ic_shoe.svg"
   inkscape:version="1.0.1 (3bc2e813f5, 2020-09-07)">
  <metadata
     id="metadata1691">
    <rdf:RDF>
      <cc:Work
         rdf:about="">
        <dc:format>image/svg+xml</dc:format>
        <dc:type
           rdf:resource="http://purl.org/dc/dcmitype/StillImage" />
      </cc:Work>
    </rdf:RDF>
  </metadata>
  <defs
     id="defs1689" />
  <sodipodi:namedview
     pagecolor="#ffffff"
     bordercolor="#666666"
     borderopacity="1"
     objecttolerance="10"
     gridtolerance="10"
     guidetolerance="10"
     inkscape:pageopacity="0"
     inkscape:pageshadow="2"
     inkscape:window-width="1920"
     inkscape:window-height="1042"
     id="namedview1687"
     showgrid="false"
     showguides="true"
     inkscape:guide-bbox="true"
     inkscape:zoom="22.185475"
     inkscape:cx="24.454686"
     inkscape:cy="8.5363032"
     inkscape:window-x="0"
     inkscape:window-y="38"
     inkscape:window-maximized="1"
     inkscape:current-layer="g1683">
    <sodipodi:guide
       position="6.9189413,13.542708"
       orientation="1,0"
       id="guide2254" />
    <sodipodi:guide
       position="7.4147612,14.252632"
       orientation="0,-1"
       id="guide2256" />
  </sodipodi:namedview>
  <g
     id="g1683">
    <rect
       fill="none"
       height="24"
       width="24"
       id="rect1679" />
    <path
       d="M 18.51,15.68 17.1,14.27 21.58,9.79 23,11.2 Z M 14.185167,13.058927 18.05,9.08 13.8,4.82 9.9251666,8.7989268 l -1.42,-1.42 L 13.8,2 v 0 l 7.08,7.08 -5.274833,5.388927 z M 15.24,15.26 13.83,16.67 v 0 L 10.5,20 H 1 V 17.37 C 1,16.53 1.52,15.8 2.3,15.49 2.88,15.26 3.58,14.93 4.27,14.47 l 1.38,1.38 C 5.74,15.95 5.87,16 6,16 c 0.13,0 0.26,-0.05 0.36,-0.15 0.2,-0.2 0.2,-0.51 0,-0.71 L 5.08,13.86 c 0.27,-0.24 0.53,-0.51 0.77,-0.8 l 1.27,1.27 c 0.09,0.1 0.23,0.15 0.35,0.15 0.12,0 0.25,-0.05 0.35,-0.15 0.2,-0.2 0.2,-0.51 0,-0.71 l -1.4,-1.4 C 6.61,11.88 6.76,11.5 6.87,11.1 l 1.71,1.72 c 0.09,0.1 0.23,0.15 0.35,0.15 0.12,0 0.25,-0.05 0.35,-0.15 0.19,-0.2 0.19,-0.5 0.01,-0.7 l -2.3710587,-2.372632 1.42,-1.41 z m -2.82,0 -1.67,-1.68 -3.33,3.32 C 6.64,17.68 5.37,17.68 4.59,16.89 L 4.4,16.72 3.93,16.96 C 3.64,17.1 3.34,17.23 3.04,17.35 L 3.03,18 h 6.64 z"
       id="path1681"
       sodipodi:nodetypes="ccccccccccccccccccccscccssscccssscccsccccccccccccccc" />
  </g>
</svg>
