<?xml version="1.0" encoding="UTF-8" standalone="no"?>
<!-- Created with Inkscape (http://www.inkscape.org/) -->

<svg
   width="12.321217mm"
   height="12.3mm"
   viewBox="0 0 12.321217 12.3"
   version="1.1"
   id="svg3988"
   inkscape:version="1.1.2 (0a00cf5339, 2022-02-04)"
   sodipodi:docname="ic_sony_wf_800n_left.svg"
   xmlns:inkscape="http://www.inkscape.org/namespaces/inkscape"
   xmlns:sodipodi="http://sodipodi.sourceforge.net/DTD/sodipodi-0.dtd"
   xmlns="http://www.w3.org/2000/svg"
   xmlns:svg="http://www.w3.org/2000/svg">
  <sodipodi:namedview
     id="namedview3990"
     pagecolor="#ffffff"
     bordercolor="#666666"
     borderopacity="1.0"
     inkscape:pageshadow="2"
     inkscape:pageopacity="0.0"
     inkscape:pagecheckerboard="0"
     inkscape:document-units="mm"
     showgrid="false"
     showguides="true"
     inkscape:guide-bbox="true"
     fit-margin-left="2"
     fit-margin-right="2"
     fit-margin-bottom="1"
     fit-margin-top="1"
     inkscape:zoom="28.986776"
     inkscape:cx="25.201147"
     inkscape:cy="32.44583"
     inkscape:window-width="1920"
     inkscape:window-height="1035"
     inkscape:window-x="0"
     inkscape:window-y="45"
     inkscape:window-maximized="1"
     inkscape:current-layer="layer1">
    <sodipodi:guide
       position="8.0623995,2.7429643"
       orientation="0,-1"
       id="guide4472" />
    <sodipodi:guide
       position="4.9027758,5.5559637"
       orientation="1,0"
       id="guide14199" />
  </sodipodi:namedview>
  <defs
     id="defs3985" />
  <g
     inkscape:label="Layer 1"
     inkscape:groupmode="layer"
     id="layer1"
     transform="translate(-81.704318,-153.92826)">
    <g
       aria-label="R"
       id="text19879"
       style="font-size:3.175px;font-family:Sans;-inkscape-font-specification:Sans;letter-spacing:0px;word-spacing:0px;stroke:#000000;stroke-width:0.264583px"
       transform="translate(0.9003844,-0.00688411)">
      <g
         id="path20419">
        <path
           style="color:#000000;-inkscape-font-specification:Sans;fill:#000000;stroke:none;-inkscape-stroke:none"
           d="m 88.752478,162.27504 q 0.100769,0.0341 0.195337,0.14573 0.09612,0.11162 0.192236,0.30696 l 0.31781,0.63251 h -0.336413 l -0.296106,-0.59376 q -0.114722,-0.23254 -0.223242,-0.30851 -0.106971,-0.076 -0.293006,-0.076 H 87.96803 v 0.97823 h -0.313159 v -2.31458 h 0.706933 q 0.396875,0 0.592212,0.16588 0.195337,0.16588 0.195337,0.50074 0,0.21859 -0.102319,0.36277 -0.100769,0.14418 -0.294556,0.19999 z m -0.784448,-0.97203 v 0.82165 h 0.393774 q 0.226343,0 0.341065,-0.10387 0.116272,-0.10542 0.116272,-0.30851 0,-0.20309 -0.116272,-0.3054 -0.114722,-0.10387 -0.341065,-0.10387 z"
           id="path20424" />
        <path
           style="color:#000000;-inkscape-font-specification:Sans;fill:#000000;stroke:none;-inkscape-stroke:none"
           d="m 87.523437,160.91406 v 2.57813 h 0.576172 v -0.97852 h 0.208985 c 0.106008,0 0.175,0.023 0.216797,0.0527 0.03834,0.0268 0.109953,0.1125 0.18164,0.25781 v 0.002 l 0.332031,0.66602 h 0.632813 l -0.414063,-0.82227 v -0.002 c -0.06683,-0.13558 -0.13491,-0.24575 -0.208984,-0.33203 -0.02289,-0.027 -0.05326,-0.036 -0.07813,-0.0586 0.06187,-0.0418 0.140739,-0.0643 0.183594,-0.125 0.08647,-0.12185 0.126953,-0.27308 0.126953,-0.43945 0,-0.24896 -0.07849,-0.46255 -0.242188,-0.60156 -0.163919,-0.1392 -0.39472,-0.19727 -0.677734,-0.19727 z m 0.263672,0.26367 h 0.04883 v 0.125 0.94727 0.008 0.97071 h -0.04883 z m 0.710938,0.0371 c 0.148175,0.0194 0.300592,0.0378 0.371094,0.0977 0.09675,0.0822 0.148437,0.20287 0.148437,0.40039 0,0.12509 -0.02817,0.21477 -0.07813,0.28516 V 162 c -0.03013,0.0431 -0.08781,0.0643 -0.136719,0.0918 0.0941,-0.098 0.148438,-0.22921 0.148438,-0.37891 0,-0.15997 -0.051,-0.3074 -0.160156,-0.4043 -0.07397,-0.067 -0.186918,-0.0752 -0.292969,-0.0937 z m -0.398438,0.22071 h 0.261719 c 0.130659,0 0.207561,0.0301 0.251953,0.0703 h 0.002 c 0.04492,0.0395 0.07227,0.0969 0.07227,0.20703 0,0.11015 -0.02802,0.1671 -0.07422,0.20898 -0.04439,0.0402 -0.121294,0.0703 -0.251953,0.0703 h -0.261719 z m 0.632813,0.70312 c -0.0069,0.002 -0.0083,0.008 -0.01563,0.01 l -0.0957,0.0273 v 0.1582 c -0.08301,-0.0446 -0.176683,-0.0726 -0.283203,-0.0762 h 0.02344 c 0.147723,0 0.267887,-0.0478 0.371094,-0.11914 z m -0.01172,0.26953 c 0.03608,0.0144 0.07838,0.0403 0.126953,0.0977 v 0.002 c 0.05341,0.062 0.113057,0.15579 0.173828,0.2793 l 0.222657,0.44141 h -0.04102 l -0.259766,-0.52149 c -0.06801,-0.13786 -0.140605,-0.22429 -0.222656,-0.29883 z"
           id="path20426" />
      </g>
    </g>
    <path
       id="path13615-2-5"
       style="fill:none;fill-opacity:1;stroke:#000000;stroke-width:0.5;stroke-miterlimit:4;stroke-dasharray:none;stroke-opacity:1"
       d="m 85.676646,155.41797 c -0.02931,0.0131 -0.05714,0.0295 -0.0848,0.0455 -0.02766,0.0164 -0.05496,0.0328 -0.08289,0.0508 -0.02799,0.0164 -0.05645,0.0373 -0.08642,0.0583 -0.02997,0.0196 -0.06139,0.0436 -0.09518,0.0681 -0.02207,0.0164 -0.044,0.0328 -0.0658,0.0495 -0.02174,0.0164 -0.04347,0.0344 -0.06498,0.0521 -0.04298,0.0357 -0.08533,0.0727 -0.12676,0.11136 -0.04143,0.0386 -0.08204,0.0789 -0.121557,0.12021 -0.03952,0.0413 -0.07795,0.0839 -0.115234,0.12741 -0.03725,0.0436 -0.07328,0.0881 -0.10789,0.13364 -0.03458,0.0455 -0.06778,0.0917 -0.09933,0.13855 -0.03162,0.0468 -0.06155,0.0943 -0.08974,0.14215 -0.01416,0.0229 -0.02766,0.0478 -0.04097,0.0721 -0.01317,0.0229 -0.02602,0.0482 -0.0381,0.0724 -0.03162,0.0622 -0.06037,0.12152 -0.08675,0.17851 -0.02635,0.057 -0.05032,0.11169 -0.07203,0.16475 -0.02174,0.0531 -0.04113,0.10482 -0.05859,0.15624 -0.0086,0.0262 -0.0168,0.0511 -0.0247,0.0763 -0.0079,0.0262 -0.01515,0.0508 -0.02174,0.076 -0.0069,0.0262 -0.01317,0.0508 -0.0191,0.0763 -0.0059,0.0262 -0.01153,0.0514 -0.0168,0.0773 -0.01021,0.0521 -0.0191,0.10514 -0.02635,0.16017 -0.0076,0.055 -0.0135,0.11202 -0.01844,0.17163 -0.0049,0.0596 -0.0089,0.12218 -0.01186,0.18801 -0.0022,0.0488 -0.0036,0.0963 -0.0046,0.14248 -7.51e-4,0.0465 -8.43e-4,0.0917 -5.6e-5,0.13593 7.54e-4,0.0442 0.0024,0.0878 0.0049,0.13069 0.0025,0.0429 0.0059,0.0852 0.01021,0.12709 0.0043,0.0419 0.0096,0.0835 0.01581,0.12479 0.0063,0.0413 0.0135,0.0825 0.02206,0.12414 0.0086,0.0413 0.01811,0.0829 0.02898,0.12479 0.01087,0.0419 0.02272,0.0839 0.03586,0.12676 0.01317,0.0429 0.02766,0.0861 0.04341,0.13036 0.01581,0.0442 0.03293,0.0891 0.05141,0.13495 0.01844,0.0459 0.03847,0.093 0.05987,0.1415 0.02141,0.0485 0.04426,0.0979 0.0687,0.14936 0.02437,0.0511 0.05045,0.10383 0.07809,0.15853 0.02766,0.0544 0.05684,0.1107 0.0878,0.16901 0.03096,0.0583 0.06359,0.11857 0.09801,0.18113 0.03441,0.0626 0.07061,0.12741 0.10868,0.19488 0.05572,0.0957 0.111084,0.18932 0.165984,0.28136 0.0549,0.092 0.109405,0.18211 0.163481,0.27022 0.05408,0.0884 0.107725,0.17491 0.160978,0.25942 0.05325,0.0848 0.106112,0.1677 0.158542,0.24893 0.05243,0.0812 0.104464,0.16049 0.156104,0.23812 0.05161,0.0776 0.10285,0.15362 0.153634,0.22764 0.05078,0.074 0.101171,0.14674 0.151131,0.21749 0.04999,0.0708 0.09956,0.13986 0.148694,0.20733 0.04914,0.0675 0.09788,0.13331 0.146191,0.19718 0.04831,0.0642 0.0963,0.12676 0.14382,0.18736 0.04752,0.0609 0.09462,0.11988 0.141317,0.17752 0.0024,0.003 0.0046,0.007 0.0069,0.01 -0.194966,-0.0262 -0.968613,-0.71204 -1.37172,-1.21583 -0.923471,-1.15403 -1.396852,-2.52066 -1.255554,-3.62461 0.129197,-1.00932 0.579152,-1.83344 1.415251,-2.59196 0.207579,-0.18834 0.2305,-0.16312 0.290933,-0.14445 0.207085,0.12512 0.230764,0.11464 0.09106,0.19161 z"
       sodipodi:nodetypes="cssscssssssssssssssssssssssssssssssssssscsssssssssssccsscc" />
    <path
       style="fill:none;fill-opacity:1;stroke:#000000;stroke-width:0.2;stroke-miterlimit:4;stroke-dasharray:none;stroke-opacity:1"
       d="m 89.421543,159.96828 c 0.280855,-0.0131 0.311286,0.0341 0.517248,-0.1569 0.193417,-0.20831 0.23903,-0.30494 0.241072,-0.49305 0.0022,-0.19521 -0.0063,-0.21814 -0.172406,-0.61528 -0.355002,-0.84882 -0.780135,-1.7003 -0.978905,-1.96057 -0.297882,-0.39006 -0.724197,-0.67506 -1.20233,-0.8217 -0.35981,-0.11038 -0.97706,-0.0943 -1.363049,0.0357 -1.222855,0.41159 -1.877382,1.7234 -1.473514,2.95321 0.236659,0.72069 0.614698,1.11099 1.05809,1.11099 z"
       id="path3272-6-9"
       sodipodi:nodetypes="ccsssssscc" />
    <path
       id="rect20090-0-9"
       style="fill:none;fill-opacity:1;stroke:#000000;stroke-width:0.2;stroke-linecap:round;stroke-linejoin:round;stroke-miterlimit:4;stroke-dasharray:none;stroke-opacity:1;paint-order:fill markers stroke;stop-color:#000000"
       d="m 89.665658,159.50015 -3.333695,0.0593 c -0.126299,0.002 -0.22803,0.1035 -0.22803,0.2319 0,0.12839 0.101731,0.23419 0.22803,0.2319 l 3.333695,-0.0593 c 0.126299,-0.002 0.22803,-0.1035 0.22803,-0.2319 0,-0.12839 -0.101731,-0.23419 -0.22803,-0.2319 z"
       sodipodi:nodetypes="sssssss" />
    <path
       style="fill:none;fill-opacity:1;stroke:#000000;stroke-width:0.5;stroke-miterlimit:4;stroke-dasharray:none;stroke-opacity:1"
       d="m 89.948137,164.92823 c 0.544003,-0.11398 1.161783,-0.52357 1.464372,-0.97067 0.461748,-0.6823 0.575563,-1.39958 0.359006,-2.26249 -0.387889,-1.54563 -1.513636,-4.33537 -2.110287,-5.22959 -0.426503,-0.63919 -0.999207,-1.06208 -1.729794,-1.27731 -0.247791,-0.073 -0.479065,-0.10252 -0.845307,-0.10973 -0.21242,-0.003 -0.568742,0.0328 -0.906948,0.15067 -0.423124,0.14609 -0.557855,0.19948 -0.828076,0.39715 -0.353286,0.25613 -0.686884,0.63179 -0.882416,1.01829 -0.252204,0.49858 -0.341154,0.81253 -0.364829,1.34023 -0.03501,0.78057 0.102357,1.2234 0.71112,2.30065 0.873758,1.45714 1.067488,1.7511 2.066729,2.97611 0.202375,0.25974 0.548646,0.65597 0.7695,0.88076 0.324657,0.33039 0.456002,0.43543 0.685867,0.54856 0.521335,0.25647 1.10744,0.34297 1.611063,0.23747 z"
       id="path5762-6-0"
       sodipodi:nodetypes="ssssssccssccsss" />
  </g>
</svg>
