<?xml version="1.0" encoding="UTF-8" standalone="no"?>
<svg
   xmlns:dc="http://purl.org/dc/elements/1.1/"
   xmlns:cc="http://creativecommons.org/ns#"
   xmlns:rdf="http://www.w3.org/1999/02/22-rdf-syntax-ns#"
   xmlns:svg="http://www.w3.org/2000/svg"
   xmlns="http://www.w3.org/2000/svg"
   xmlns:sodipodi="http://sodipodi.sourceforge.net/DTD/sodipodi-0.dtd"
   xmlns:inkscape="http://www.inkscape.org/namespaces/inkscape"
   version="1.1"
   width="24"
   height="24"
   viewBox="0 0 24 24"
   id="svg4"
   sodipodi:docname="ic_shoe_prints_many.svg"
   inkscape:version="1.0.1 (3bc2e813f5, 2020-09-07)">
  <metadata
     id="metadata10">
    <rdf:RDF>
      <cc:Work
         rdf:about="">
        <dc:format>image/svg+xml</dc:format>
        <dc:type
           rdf:resource="http://purl.org/dc/dcmitype/StillImage" />
        <dc:title></dc:title>
      </cc:Work>
    </rdf:RDF>
  </metadata>
  <defs
     id="defs8" />
  <sodipodi:namedview
     pagecolor="#ffffff"
     bordercolor="#666666"
     borderopacity="1"
     objecttolerance="10"
     gridtolerance="10"
     guidetolerance="10"
     inkscape:pageopacity="0"
     inkscape:pageshadow="2"
     inkscape:window-width="1920"
     inkscape:window-height="1042"
     id="namedview6"
     showgrid="true"
     showguides="true"
     inkscape:guide-bbox="true"
     inkscape:zoom="16.0625"
     inkscape:cx="20.274468"
     inkscape:cy="17.69706"
     inkscape:window-x="0"
     inkscape:window-y="38"
     inkscape:window-maximized="1"
     inkscape:current-layer="svg4"
     inkscape:document-rotation="0">
    <inkscape:grid
       type="xygrid"
       id="grid880" />
    <sodipodi:guide
       position="16,24"
       orientation="0,-1"
       id="guide882" />
  </sodipodi:namedview>
  <path
     d="m 6.4801431,14.379265 c 0.3823082,1.031063 0.3416371,2.10404 -0.8052874,2.531554 C 3.3159331,17.807761 2.787209,15.452241 2.7546721,15.334884 l 3.725471,-0.955619 M 2.3886324,13.700271 5.9026138,12.80333 c -0.1545501,-0.880176 0.081342,-1.760353 0.081342,-2.799798 0,-1.4082825 -1.0818507,-4.1661681 -2.8063045,-3.7218887 -1.9684802,0.5029579 -2.2531778,2.7578856 -2.1799698,3.8476277 0.097611,1.089742 1.3340114,3.420113 1.3909509,3.571 m 9.8749386,7.494073 C 12.239171,21.320083 11.70231,23.66722 9.343387,22.778661 8.204597,22.342764 8.155792,21.269787 8.5381,20.238724 l 3.725471,0.95562 m 1.748856,-5.197232 c 0.08134,-1.089742 -0.195221,-3.353052 -2.171836,-3.85601 -1.716319,-0.461045 -2.79817,2.313606 -2.79817,3.730271 0,1.031064 0.227758,1.91124 0.08948,2.791416 l 3.497713,0.896942 c 0.06507,-0.150888 1.293341,-2.481259 1.382817,-3.562619 z"
     id="path2"
     style="stroke-width:0.999999" />
  <path
     d="M 14.730838,7.4902842 C 14.986006,8.2347895 14.958862,9.00956 14.193361,9.3182576 12.618928,9.9659169 12.266038,8.2650539 12.244321,8.1803133 L 14.730838,7.4902842 M 12.000011,7 14.345374,6.3523407 c -0.103162,-0.6355538 0.05428,-1.2711071 0.05428,-2.0216657 0,-1.0168858 -0.722068,-3.0082871 -1.873034,-2.6874837 -1.313836,0.3631733 -1.503856,1.9914011 -1.454993,2.778277 C 11.136774,5.2083444 11.961996,6.8910478 12,7 m 6.590901,5.411286 c -0.0162,0.09079 -0.374605,1.785603 -1.949038,1.143996 -0.760065,-0.314751 -0.79264,-1.089521 -0.537473,-1.834026 l 2.486519,0.69003 m 1.16726,-3.7527936 c 0.05428,-0.7868766 -0.130305,-2.4211567 -1.449564,-2.78433 -1.145536,-0.3329091 -1.867604,1.670598 -1.867604,2.6935367 0,0.7445054 0.152015,1.3800583 0.05971,2.0156119 l 2.334511,0.647659 c 0.04345,-0.108954 0.863221,-1.7916547 0.922943,-2.5724776 z"
     id="path2-3"
     style="stroke-width:0.999998" />
</svg>
