<?xml version="1.0" encoding="UTF-8" standalone="no"?>
<svg
   version="1.0"
   width="24"
   height="23.999998"
   id="svg36"
   sodipodi:docname="olive_laurel.svg"
   inkscape:version="1.2.1 (9c6d41e410, 2022-07-14)"
   xmlns:inkscape="http://www.inkscape.org/namespaces/inkscape"
   xmlns:sodipodi="http://sodipodi.sourceforge.net/DTD/sodipodi-0.dtd"
   xmlns="http://www.w3.org/2000/svg"
   xmlns:svg="http://www.w3.org/2000/svg"
   xmlns:rdf="http://www.w3.org/1999/02/22-rdf-syntax-ns#"
   xmlns:cc="http://creativecommons.org/ns#"
   xmlns:dc="http://purl.org/dc/elements/1.1/">
  <metadata
     id="metadata42">
    <rdf:RDF>
      <cc:Work
         rdf:about="">
        <dc:format>image/svg+xml</dc:format>
        <dc:type
           rdf:resource="http://purl.org/dc/dcmitype/StillImage" />
        <dc:title />
      </cc:Work>
    </rdf:RDF>
  </metadata>
  <defs
     id="defs40">
    <linearGradient
       gradientTransform="matrix(0.22116326,0,0,0.22116326,48.742492,-29.402522)"
       id="SVGID_82_"
       gradientUnits="userSpaceOnUse"
       x1="1386.7239"
       y1="1403.7546"
       x2="1901.9294"
       y2="1403.7546">
      <stop
         offset="0"
         style="stop-color:#FFE964"
         id="stop2661" />
      <stop
         offset="0.0123"
         style="stop-color:#F6DA5C"
         id="stop2663" />
      <stop
         offset="0.0525"
         style="stop-color:#DCAE43"
         id="stop2665" />
      <stop
         offset="0.0886"
         style="stop-color:#CA8E31"
         id="stop2667" />
      <stop
         offset="0.1188"
         style="stop-color:#BE7A26"
         id="stop2669" />
      <stop
         offset="0.1394"
         style="stop-color:#BA7322"
         id="stop2671" />
      <stop
         offset="0.1711"
         style="stop-color:#AA6118"
         id="stop2673" />
      <stop
         offset="0.2182"
         style="stop-color:#8B3E04"
         id="stop2675" />
      <stop
         offset="0.2412"
         style="stop-color:#A05B17"
         id="stop2677" />
      <stop
         offset="0.2998"
         style="stop-color:#D3A045"
         id="stop2679" />
      <stop
         offset="0.3421"
         style="stop-color:#F3CB62"
         id="stop2681" />
      <stop
         offset="0.3636"
         style="stop-color:#FFDC6D"
         id="stop2683" />
      <stop
         offset="0.4545"
         style="stop-color:#FFFFB5"
         id="stop2685" />
      <stop
         offset="0.5576"
         style="stop-color:#FCFDF6"
         id="stop2687" />
      <stop
         offset="0.6545"
         style="stop-color:#FFFF9C"
         id="stop2689" />
      <stop
         offset="0.7758"
         style="stop-color:#FDDC53"
         id="stop2691" />
      <stop
         offset="0.7981"
         style="stop-color:#F5CF4A"
         id="stop2693" />
      <stop
         offset="0.8393"
         style="stop-color:#E1AD31"
         id="stop2695" />
      <stop
         offset="0.8944"
         style="stop-color:#C0770A"
         id="stop2697" />
      <stop
         offset="0.903"
         style="stop-color:#BB6E03"
         id="stop2699" />
      <stop
         offset="1"
         style="stop-color:#5B1F03"
         id="stop2701" />
    </linearGradient>
    <linearGradient
       gradientTransform="matrix(0.22116326,0,0,0.22116326,48.742492,-29.402522)"
       id="SVGID_81_"
       gradientUnits="userSpaceOnUse"
       x1="1386.7239"
       y1="1403.7546"
       x2="1901.9294"
       y2="1403.7546">
      <stop
         offset="0"
         style="stop-color:#2E1300"
         id="stop2642" />
      <stop
         offset="0.1265"
         style="stop-color:#734200"
         id="stop2644" />
      <stop
         offset="0.3198"
         style="stop-color:#D0C459"
         id="stop2646" />
      <stop
         offset="0.4146"
         style="stop-color:#FFFF8A"
         id="stop2648" />
      <stop
         offset="0.6111"
         style="stop-color:#FFEB5C"
         id="stop2650" />
      <stop
         offset="0.8827"
         style="stop-color:#A67C21"
         id="stop2652" />
      <stop
         offset="1"
         style="stop-color:#5C2C00"
         id="stop2654" />
      <stop
         offset="1"
         style="stop-color:#725316"
         id="stop2656" />
    </linearGradient>
    <linearGradient
       id="linearGradient4195">
      <stop
         offset="0"
         stop-color="#f3ed6d"
         id="stop4197" />
      <stop
         offset=".071429"
         stop-color="#ede77c"
         id="stop4199" />
      <stop
         offset=".14286"
         stop-color="#f5ef72"
         id="stop4201" />
      <stop
         offset=".21429"
         stop-color="#f4e65c"
         id="stop4203" />
      <stop
         offset=".28571"
         stop-color="#eed756"
         id="stop4205" />
      <stop
         offset=".35714"
         stop-color="#e9c952"
         id="stop4207" />
      <stop
         offset=".42857"
         stop-color="#eac74d"
         id="stop4209" />
      <stop
         offset=".5"
         stop-color="#eac848"
         id="stop4211" />
      <stop
         offset=".57143"
         stop-color="#e6c842"
         id="stop4213" />
      <stop
         offset=".64286"
         stop-color="#e1c540"
         id="stop4215" />
      <stop
         offset=".71429"
         stop-color="#dbbd3c"
         id="stop4217" />
      <stop
         offset=".78571"
         stop-color="#d1ae39"
         id="stop4219" />
      <stop
         offset=".85714"
         stop-color="#c7a534"
         id="stop4221" />
      <stop
         offset=".92857"
         stop-color="#c4a92f"
         id="stop4223" />
      <stop
         offset="1"
         stop-color="#c1ac2d"
         id="stop4225" />
    </linearGradient>
    <filter
       style="color-interpolation-filters:sRGB"
       inkscape:label="Emboss Shader"
       inkscape:menu-tooltip="Combination of satiny and emboss effect"
       inkscape:menu="Non realistic 3D shaders"
       height="1.5"
       y="-0.25"
       width="1.5"
       x="-0.25"
       id="filter8631-6">
      <feGaussianBlur
         result="result8"
         stdDeviation="5"
         in="SourceGraphic"
         id="feGaussianBlur8633-0" />
      <feComposite
         result="result19"
         operator="xor"
         in2="result8"
         id="feComposite8635-6" />
      <feComposite
         in2="result8"
         result="result17"
         operator="arithmetic"
         k2="1"
         id="feComposite8637-2"
         k1="0"
         k3="0"
         k4="0" />
      <feOffset
         in="result8"
         result="result18"
         id="feOffset8639-6" />
      <feDisplacementMap
         result="result4"
         scale="100"
         yChannelSelector="A"
         xChannelSelector="A"
         in="result18"
         in2="result17"
         id="feDisplacementMap8641-1" />
      <feComposite
         k3="0.5"
         k1="0.5"
         in="result4"
         operator="arithmetic"
         result="result2"
         in2="result4"
         id="feComposite8643-8"
         k2="0"
         k4="0" />
      <feComposite
         operator="over"
         in="result2"
         result="fbSourceGraphic"
         in2="result2"
         id="feComposite8645-7" />
      <feComposite
         result="result15"
         operator="in"
         in2="fbSourceGraphic"
         id="feComposite8647-9" />
      <feComposite
         in="result15"
         operator="in"
         in2="result8"
         result="result16"
         id="feComposite8649-2" />
    </filter>
  </defs>
  <sodipodi:namedview
     pagecolor="#ffffff"
     bordercolor="#666666"
     borderopacity="1"
     objecttolerance="10"
     gridtolerance="10"
     guidetolerance="10"
     inkscape:pageopacity="0"
     inkscape:pageshadow="2"
     inkscape:window-width="1920"
     inkscape:window-height="1035"
     id="namedview38"
     showgrid="false"
     inkscape:zoom="32.802228"
     inkscape:cx="9.389606"
     inkscape:cy="13.246051"
     inkscape:window-x="0"
     inkscape:window-y="45"
     inkscape:window-maximized="1"
     inkscape:current-layer="svg36"
     inkscape:snap-global="false"
     showguides="true"
     inkscape:showpageshadow="2"
     inkscape:pagecheckerboard="0"
     inkscape:deskcolor="#d1d1d1" />
  <g
     id="g563"
     transform="translate(0,-0.7181305)">
    <path
       inkscape:connector-curvature="0"
       style="fill:#000000;fill-opacity:1;stroke:none;stroke-width:0.939045;stroke-opacity:1"
       d="M 5.748407,0.7181305 C 4.9089718,1.1229642 3.9698914,1.5076507 3.463455,2.6058643 3.1075486,3.199615 3.0983522,3.9726613 2.8474248,4.6193276 3.3122366,4.0771565 4.031798,3.5219633 4.4418292,2.8911986 4.8992452,2.099059 5.131822,1.3893232 5.748407,0.7181305 Z m 12.503186,0 c 0.616585,0.6711927 0.84931,1.3809285 1.306726,2.1730681 0.410032,0.6307647 1.129445,1.1859579 1.594257,1.728129 C 20.901648,3.9726615 20.892452,3.199615 20.536546,2.6058643 20.030108,1.5076507 19.091028,1.1229642 18.251593,0.7181305 Z M 3.4843852,2.1327501 C 3.056552,2.2679277 2.6763044,2.5894184 2.3764212,3.0525949 1.6854215,3.9526906 1.5669308,5.1335587 1.8533152,6.5572228 1.9518452,6.9337625 1.8117472,7.286476 1.8316432,7.6379752 2.0345981,7.1212906 2.2644769,6.6463614 2.7114527,6.313744 3.7081487,5.613623 3.9822567,5.2428965 4.2372785,4.5828465 4.5371457,3.8067255 4.5928641,3.6914478 4.5994741,2.9949417 4.3103253,3.9967668 3.4374385,4.417201 2.8474253,5.0935819 2.5442051,5.4627796 2.3013381,5.8905643 2.1631121,6.3435478 L 2.1418851,6.322702 C 2.2145314,5.9218945 2.3604376,5.5617487 2.4444072,5.1707789 2.70777,4.1135646 2.6536544,2.8409742 3.4843852,2.1327505 Z m 17.0031748,0 c 0.83073,0.7082236 0.776614,1.980814 1.039978,3.0380283 0.08397,0.3909698 0.229876,0.7511156 0.302522,1.1519232 l -0.02123,0.020846 C 21.670604,5.890564 21.427738,5.4627794 21.124518,5.0935816 20.534504,4.417201 19.661618,3.9967666 19.372469,2.9949414 c 0.0066,0.6965061 0.06248,0.8117839 0.362344,1.5879049 0.255022,0.66005 0.528981,1.0307765 1.525677,1.7308974 0.446976,0.3326175 0.676856,0.8075467 0.87981,1.3242312 C 22.1602,7.2864755 22.020098,6.933762 22.11863,6.5572224 22.405014,5.1335583 22.286524,3.9526901 21.595524,3.0525945 21.29564,2.5894184 20.915392,2.2679277 20.48756,2.1327501 Z M 1.7114055,4.0266727 c -0.021664,-0.0051 -0.033502,0.015795 -0.050321,0.026221 C 1.0818043,4.9698043 0.57606596,5.6634628 0.60106728,6.8958129 0.52305348,8.4123765 1.4001886,9.7947276 1.4881507,11.225012 1.6212002,10.130098 2.309539,9.3566618 2.8790426,8.5079841 2.8039716,8.870642 2.7168274,9.2219603 2.5662776,9.5374355 1.9423623,10.710552 1.321361,12.10312 1.751485,13.6041 1.741535,13.619958 1.727506,13.640861 1.711406,13.629994 1.5385569,13.134028 1.5089834,12.566606 1.3881011,12.038181 1.0992135,10.625456 0.2185583,9.4497466 0.47400138,7.821195 0.33917854,8.1745554 0.28459434,8.5733663 0.21319058,8.9586231 0.06246353,9.9542772 -0.01780287,10.568438 0.20354158,11.482985 0.47253244,12.630121 1.6056459,13.895601 2.0630618,14.946083 l 0.062494,0.06221 C 2.05893,14.438377 2.0249322,13.82482 2.1546504,13.281307 2.35178,12.411484 2.8935868,11.561478 3.0452962,10.664929 3.1243722,9.9618435 2.9480686,9.1823532 2.8814174,8.5044012 3.0869908,8.1977979 3.277417,7.8815499 3.4198132,7.5363492 3.6077794,7.0154376 3.5289738,6.2742488 3.5853246,5.7106659 3.5096016,5.9506405 3.3792746,6.1581256 3.2318866,6.3624399 2.5416724,7.1433229 1.7514654,7.9448917 1.6012623,9.0766988 1.5760643,9.2375517 1.5680053,9.4047036 1.5303073,9.5610503 1.5007253,9.5771916 1.5006513,9.5351016 1.4881503,9.5248953 L 1.5723163,8.1215126 C 1.6013749,6.750725 1.0737461,5.2309077 1.7114055,4.0266727 Z m 20.5771885,0 c 0.637658,1.204235 0.11018,2.7240523 0.139238,4.0948399 l 0.08402,1.4033827 c -0.0125,0.010206 -0.01242,0.052296 -0.04201,0.036155 -0.0377,-0.1563467 -0.0459,-0.3234986 -0.0711,-0.4843515 C 22.24854,7.9448917 21.458332,7.1433229 20.768118,6.3624399 20.62073,6.1581256 20.490402,5.9506405 20.41468,5.7106659 c 0.05635,0.5635829 -0.02231,1.3047717 0.16566,1.8256833 0.142396,0.3452007 0.332674,0.6614487 0.538246,0.968052 -0.06665,0.6779511 -0.242806,1.4574423 -0.16373,2.1605278 0.15171,0.896549 0.693516,1.746555 0.890646,2.616378 0.129718,0.543513 0.09557,1.15707 0.02895,1.726989 l 0.06249,-0.06221 C 22.394358,13.895601 23.52762,12.630121 23.79661,11.482985 24.017956,10.568438 23.937542,9.9542772 23.78681,8.9586231 23.71541,8.5733663 23.660822,8.1745554 23.526,7.821195 c 0.255442,1.6285516 -0.625214,2.80426 -0.914102,4.216986 -0.120882,0.528425 -0.150454,1.095847 -0.323304,1.591813 -0.0161,0.01087 -0.03013,-0.01004 -0.04008,-0.02589 0.430124,-1.50098 -0.19073,-2.893548 -0.814644,-4.0666654 -0.15055,-0.3154743 -0.237844,-0.6667926 -0.312914,-1.0294505 0.569504,0.8486768 1.257844,1.6221129 1.390892,2.7170269 0.08796,-1.4302842 0.965098,-2.8126345 0.887084,-4.3291981 0.025,-1.2323501 -0.48059,-1.9260086 -1.05987,-2.8429194 -0.01682,-0.010427 -0.02881,-0.031316 -0.05047,-0.026221 z M 2.7953218,11.731838 c 0.105568,1.163826 -0.300776,2.150816 -0.2722408,3.318802 0.028535,0.705537 0.213591,1.330824 0.5113788,1.893597 l -0.05047,1.67e-4 C 2.5816814,16.287889 2.2675308,15.589342 1.7973529,14.964164 1.0675428,14.09013 0.13636965,13.193971 0.04055366,11.979067 -0.08337197,12.9936 0.08334145,13.944717 0.45025082,14.785505 0.8171601,15.626293 1.3842521,16.356687 2.0609842,16.92942 l 0.3152886,0.242177 c 0.5578784,0.453086 0.9973108,0.630876 1.5333956,1.146222 v -0.06335 C 3.4991136,17.406403 3.5518444,16.39898 3.4863148,15.370179 3.4207854,14.341381 3.2369462,13.291142 2.9839902,12.357395 Z m 18.4093562,0 -0.188668,0.625553 c -0.252956,0.933747 -0.436646,1.983986 -0.502176,3.012784 -0.06553,1.0288 -0.0128,2.036224 -0.423354,2.884287 v 0.06335 c 0.536084,-0.515346 0.97537,-0.693135 1.533248,-1.146222 l 0.315288,-0.242176 c 0.676732,-0.572732 1.243824,-1.303126 1.610734,-2.143915 0.366908,-0.840788 0.533622,-1.791905 0.409696,-2.806438 -0.09582,1.214903 -1.026988,2.111063 -1.756798,2.985097 -0.470178,0.625178 -0.78433,1.323726 -1.186638,1.980239 l -0.05047,-1.67e-4 c 0.297788,-0.562772 0.482992,-1.18806 0.511528,-1.893597 0.02854,-1.167985 -0.377958,-2.154976 -0.27239,-3.318802 z m -17.7042618,3.10757 c 0.512784,1.274538 0.2720172,2.932627 0.9564058,4.118128 0.1879668,0.391851 0.4985276,0.736447 0.7669948,1.03906 l -0.01247,0.0158 C 4.9684044,19.871069 4.7429688,19.6689 4.5277766,19.431141 3.3584174,18.235053 1.614355,18.068853 0.9179884,16.107289 1.0124627,16.827018 1.1272775,17.549345 1.5024006,18.153976 2.762261,20.176912 4.1023968,20.212088 6.2177774,20.75195 5.2496058,19.779057 5.0897276,18.328092 4.6713188,17.04293 4.3900232,16.255611 3.9663398,15.533892 3.5004162,14.839408 Z m 16.9991678,0 c -0.465924,0.694483 -0.889608,1.416203 -1.170903,2.203522 -0.418409,1.285162 -0.578286,2.736127 -1.546458,3.70902 2.188044,-0.50869 3.428255,-0.518889 4.715377,-2.597974 0.375122,-0.604631 0.489936,-1.326958 0.584412,-2.046687 -0.696368,1.961564 -2.44028,2.127764 -3.60964,3.323852 -0.215192,0.237759 -0.440777,0.439928 -0.68372,0.581254 l -0.01247,-0.0158 c 0.268467,-0.302614 0.579028,-0.647211 0.766995,-1.03906 0.684387,-1.185501 0.443621,-2.843591 0.956405,-4.11813 z M 5.1743854,17.94714 c 0.6328812,1.060311 0.803988,2.630933 1.969812,3.143075 0.1935296,0.127291 0.4394738,0.112801 0.6167734,0.252761 -0.2226552,0.04202 -0.4148502,-0.06322 -0.6249374,-0.09935 -1.487305,-0.416751 -3.3117492,0.106548 -4.4282916,-1.475855 0.4237754,1.033348 1.292776,1.863746 2.1350264,2.195543 1.2955418,0.549719 2.6526596,-0.0582 3.8743112,-0.429303 0.1754008,-0.05678 0.3896682,-0.03586 0.553091,-0.109769 C 8.5901664,21.250778 7.9448694,20.979665 7.4087194,20.394144 6.6628082,19.519452 5.9829288,18.616966 5.1743854,17.94714 Z m 13.6512286,0 c -0.808543,0.669826 -1.488274,1.572313 -2.234185,2.447002 -0.536149,0.585521 -1.181594,0.856636 -1.861598,1.030104 0.163422,0.07391 0.37769,0.05299 0.55309,0.109769 1.221652,0.3711 2.578918,0.979023 3.874459,0.429303 0.842251,-0.331797 1.711252,-1.162195 2.135026,-2.195543 -1.116542,1.582403 -2.940986,1.059104 -4.428291,1.475855 -0.210087,0.03613 -0.40243,0.141368 -0.625085,0.09935 0.177299,-0.13996 0.423392,-0.12547 0.616921,-0.252761 1.165824,-0.512142 1.336782,-2.082764 1.969663,-3.143075 z m -5.519482,3.432806 c -0.358595,-1.67e-4 -0.716568,0.05158 -1.060314,0.161885 -0.218203,0.243166 -0.442659,-0.04348 -0.673625,-0.04902 -1.479974,-0.404849 -2.755593,0.432148 -3.9832654,1.091989 -0.9148978,0.445874 -2.113123,0.370966 -2.9176088,-0.320349 0.3980548,0.621864 0.930639,1.005124 1.4804024,1.265762 1.0222318,0.509223 2.2387558,0.166717 3.0846048,-0.566269 0.7258832,-0.505406 1.350068,-1.500744 2.306328,-1.121794 -0.973146,0.560728 -1.8626668,1.346833 -2.6668912,2.357264 l 0.5038084,0.518715 c 0.5864138,-0.975892 1.3664358,-1.772359 2.1552148,-2.391141 0.171081,-0.113956 0.351482,-0.255617 0.541216,-0.285822 0.968892,0.591024 1.834296,1.601344 2.615679,2.650579 0.166696,-0.167058 0.3437,-0.348334 0.480355,-0.542166 -0.810835,-0.976338 -1.697654,-1.740377 -2.652344,-2.295216 0.158646,-0.05665 0.338675,-0.06767 0.525333,-0.06286 0.514617,-0.03894 0.865227,0.414918 1.263085,0.730437 0.9827,0.929319 2.295802,1.543139 3.553974,0.9617 0.564031,-0.250065 1.110269,-0.692547 1.51009,-1.310878 -0.777652,0.686071 -1.950695,0.799028 -2.857935,0.379633 L 15.53824,22.063479 c -0.651084,-0.431489 -1.443196,-0.68312 -2.232108,-0.683533 z"
       id="path4708" />
    <path
       d="M 17.833333,6.8847962 H 16.166667 V 5.2181295 H 7.8333331 V 6.8847962 H 6.1666665 c -0.9166667,0 -1.6666667,0.7500002 -1.6666667,1.6666669 v 0.8333333 c 0,2.1250006 1.6,3.8583336 3.6583333,4.1166666 0.525,1.25 1.6499999,2.191667 3.0083339,2.466667 v 2.583333 H 7.8333331 V 20.21813 H 16.166667 V 18.551463 H 12.833333 V 15.96813 c 1.358334,-0.275 2.483334,-1.216667 3.008334,-2.466667 C 17.9,13.24313 19.5,11.509797 19.5,9.3847963 V 8.551463 C 19.5,7.6347963 18.75,6.8847961 17.833333,6.8847962 Z M 6.1666665,9.3847964 V 8.5514631 H 7.8333331 V 11.734797 C 6.8666665,11.384797 6.1666665,10.46813 6.1666665,9.3847964 Z M 12,14.384797 c -1.375,0 -2.5000003,-1.125 -2.5000003,-2.5 V 6.8847962 H 14.5 v 5.0000008 c 0,1.375 -1.125,2.5 -2.5,2.5 z m 5.833333,-5.0000006 c 0,1.0833336 -0.7,2.0000006 -1.666666,2.3500006 V 8.5514631 h 1.666666 z"
       id="path231"
       style="stroke-width:1" />
  </g>
  <path
     fill="#fcab29"
     d="m 11.747167,8.1749904 c -0.05033,-4.399e-4 -0.09964,-0.015657 -0.149198,-0.023479 -0.09537,-0.015123 -0.190615,-0.031544 -0.286203,-0.045109 -0.03452,-0.00489 -0.06898,-0.010235 -0.103511,-0.015123 -0.0108,-0.00149 -0.0304,-8.463e-4 -0.03557,-0.012831 -0.0082,-0.01882 0.0099,-0.048943 0.01823,-0.064631 0.02792,-0.05186 0.05914,-0.1019641 0.09025,-0.151854 0.08096,-0.1298573 0.172403,-0.2638099 0.289412,-0.3628503 0.07704,-0.065211 0.166228,-0.10395 0.264889,-0.063424 0.03981,0.016345 0.07573,0.043505 0.103989,0.076072 0.02267,0.026136 0.04376,0.056336 0.05425,0.089881 0.01388,0.044299 0.03358,0.1222042 0.01512,0.1673526 -0.01675,0.04103 -0.06211,0.071917 -0.09031,0.1053706 -0.04805,0.056978 -0.08658,0.1205239 -0.122236,0.185949 -0.0167,0.030658 -0.04724,0.074911 -0.04555,0.1115113 0.0011,0.023097 0.06944,0.040496 0.08775,0.050608 0.06446,0.035561 0.123903,0.087911 0.154334,0.1570981 0.05601,0.1273979 -0.002,0.3115031 -0.105624,0.3983506 -0.03153,0.026427 -0.07069,0.040847 -0.109604,0.051815 -0.108663,0.030643 -0.225313,9.043e-4 -0.334919,-0.00382 -0.0042,0.05487 -0.01404,0.1134208 0.0023,0.1673541 0.02982,0.098466 0.149707,0.1716557 0.250354,0.1469048 0.100226,-0.024639 0.164482,-0.1152233 0.234714,-0.1837616 0.01311,-0.012831 0.03342,-0.012831 0.04587,-0.024899 0.01542,-0.01497 0.02058,-0.049157 0.03053,-0.068419 0.01527,-0.029604 0.03944,-0.056443 0.05858,-0.083679 0.116514,-0.1659686 0.218241,-0.3426668 0.315794,-0.5206572 0.02687,-0.049035 0.05332,-0.098543 0.07798,-0.1487531 0.0085,-0.017414 0.01357,-0.050226 0.02667,-0.063485 0.01265,-0.012831 0.04007,-0.012068 0.05628,-0.019537 0.112982,-0.052242 0.230787,-0.031177 0.319695,0.058246 0.01951,0.019644 0.04054,0.039136 0.05206,0.065074 0.04954,0.111603 -0.0026,0.2458062 -0.04166,0.3502037 -0.06851,0.1833766 -0.175104,0.3537813 -0.28436,0.51446 -0.01823,0.026808 -0.02076,0.064676 -0.03918,0.089026 -0.01219,0.0161 -0.0369,0.01859 -0.0509,0.034996 -0.03281,0.038372 -0.06288,0.08623 -0.104853,0.1150858 -0.08218,0.056489 -0.222953,0.05542 -0.307516,0.00794 -0.08187,-0.046056 -0.09817,-0.1420166 -0.10237,-0.2283707 -0.0015,-0.031238 0.01095,-0.070344 -0.0042,-0.099169 m 0.03654,-1.1745797 c 0.05426,-0.011457 0.09972,-0.042512 0.155281,-0.051326 0.116885,-0.018544 0.237609,0.051906 0.281778,0.1628922 0.02238,0.056229 0.01566,0.114765 0.03182,0.1704535 m 0.06393,1.0661081 c 0.02527,0.03576 0.01172,0.1027126 0.02358,0.1456674 0.0349,0.1267258 0.146452,0.179324 0.268707,0.1528852 0.17224,-0.037242 0.296585,-0.1979021 0.388718,-0.3388311 0.02128,-0.032567 0.03788,-0.075583 0.06382,-0.1041638 0.0088,-0.00962 0.03108,-0.023494 0.04279,-0.012526 0.01809,0.016986 0.01018,0.080609 0.01018,0.1042555 0,0.1022238 8.8e-4,0.2051397 -0.0086,0.3068166 -0.01823,0.1949982 -0.02204,0.4176421 -0.128545,0.5888399 -0.03611,0.058047 -0.08985,0.1068831 -0.139897,0.1523731 -0.09874,0.08974 -0.203813,0.173106 -0.313605,0.24844 -0.04825,0.0331 -0.104453,0.06199 -0.148859,0.100039 -0.01768,0.01512 -0.01249,0.04208 -0.01249,0.0632 v 0.167349 c 0,0.01639 0.0079,0.06413 -0.0071,0.07428 -0.01496,0.01023 -0.05144,0.0032 -0.06905,0.0032 h -1.041256 c -0.01889,0 -0.05907,0.0076 -0.07515,-0.0032 -0.01644,-0.01115 -0.0071,-0.07137 -0.0071,-0.08979 0,-0.06721 0.01607,-0.174946 -0.02681,-0.229337 C 11.14962,10.16143 10.934289,9.8795567 10.759401,9.5728269 10.685771,9.4436876 10.59599,9.2999189 10.581572,9.1482421 10.553272,8.8506183 10.709484,8.5545098 10.861006,8.31147 c 0.03703,-0.059391 0.07666,-0.117866 0.118936,-0.1735514 0.0145,-0.019079 0.0302,-0.050165 0.05176,-0.061423 0.03455,-0.018025 0.09629,0.00565 0.133928,0.00565 m 1.753754,0.3068151 c 0.134422,-0.028229 0.263489,-0.095365 0.389724,0.00117 0.02144,0.016406 0.03927,0.035622 0.05505,0.057726 0.01916,0.02687 0.03173,0.055022 0.04061,0.08678 0.0097,0.034782 0.019,0.071932 0.01672,0.1084715 -0.0051,0.081098 -0.04658,0.143147 -0.07441,0.21694 -0.0099,0.026182 -0.01141,0.05626 -0.01666,0.083679 M 11.059074,8.7112989 c 0.08249,0.037211 0.174513,0.060293 0.261845,0.082518 0.03768,0.00962 0.0883,0.012526 0.121789,0.03214 m -0.04871,1.9276741 c -0.03668,0.01992 -0.107784,0.0063 -0.149198,0.0063 -0.01203,0 -0.0434,-0.0057 -0.05167,0.005 -0.0054,0.007 -0.0031,0.02079 -0.0031,0.02913 v 0.461773 c 0,0.0089 -0.0026,0.0243 0.0071,0.02913 0.02807,0.01405 0.08946,0.0018 0.120818,0.0018 h 1.394479 c 0.03432,0 0.08238,0.009 0.115249,-10e-4 0.01234,-0.0037 0.0096,-0.0198 0.0096,-0.03 v -0.461772 c 0,-0.0084 0.0023,-0.02207 -0.0031,-0.02913 -0.0093,-0.01192 -0.05007,-0.0049 -0.06386,-0.0049 -0.05383,0 -0.125044,0.01237 -0.176594,-0.0031 m -0.986487,0.125275 c 0.06109,-0.0081 0.127141,-0.0013 0.188773,-0.0013 h 0.563213 c 0.03743,0 0.07925,-0.004 0.115696,0.0064 0.02516,0.007 0.03361,0.02876 0.03771,0.0525 0.0086,0.05 0.0071,0.116965 9.98e-4,0.167354 -0.0029,0.02365 -0.0079,0.04937 -0.03262,0.0588 -0.02448,0.0093 -0.05358,0.0063 -0.07916,0.0063 H 11.6376 c -0.02641,0 -0.05745,0.0035 -0.08216,-0.0082 -0.03429,-0.01627 -0.02744,-0.07215 -0.02744,-0.103354 0,-0.04329 -0.01686,-0.134975 0.02162,-0.164875 0.01629,-0.01268 0.03827,-0.011 0.05753,-0.0136 m -0.191816,0.407786 v 0.393594 l 0.0031,0.03223 0.06386,0.0049 h 1.044335 l 0.0621,-0.0049 0.0049,-0.03223 v -0.393597"
     id="path3081"
     style="fill:none;stroke:#000000;stroke-width:0.15625;stroke-opacity:1" />
</svg>
