<?xml version="1.0" encoding="UTF-8" standalone="no"?>
<!-- Created with Inkscape (http://www.inkscape.org/) -->

<svg
   width="75.157791mm"
   height="91.070755mm"
   viewBox="0 0 75.157791 91.070755"
   version="1.1"
   id="svg5"
   inkscape:version="1.1.2 (0a00cf5339, 2022-02-04)"
   sodipodi:docname="sony_800n.svg"
   xmlns:inkscape="http://www.inkscape.org/namespaces/inkscape"
   xmlns:sodipodi="http://sodipodi.sourceforge.net/DTD/sodipodi-0.dtd"
   xmlns="http://www.w3.org/2000/svg"
   xmlns:svg="http://www.w3.org/2000/svg">
  <sodipodi:namedview
     id="namedview7"
     pagecolor="#ffffff"
     bordercolor="#666666"
     borderopacity="1.0"
     inkscape:pageshadow="2"
     inkscape:pageopacity="0.0"
     inkscape:pagecheckerboard="0"
     inkscape:document-units="mm"
     showgrid="false"
     inkscape:zoom="0.90583672"
     inkscape:cx="7.1756861"
     inkscape:cy="221.34232"
     inkscape:window-width="1920"
     inkscape:window-height="1035"
     inkscape:window-x="0"
     inkscape:window-y="45"
     inkscape:window-maximized="1"
     inkscape:current-layer="layer1" />
  <defs
     id="defs2" />
  <g
     inkscape:label="Layer 1"
     inkscape:groupmode="layer"
     id="layer1"
     transform="translate(-77.71272,-89.542777)">
    <path
       id="path13615"
       style="fill:none;fill-opacity:1;stroke:#000000;stroke-width:0.5;stroke-miterlimit:4;stroke-dasharray:none;stroke-opacity:1"
       d="m 135.66527,92.903517 c 0.27135,0.13426 0.53173,0.27201 0.7891,0.41755 0.25737,0.14554 0.51166,0.2989 0.77153,0.46353 0.25987,0.16464 0.52522,0.34072 0.80408,0.53227 0.27886,0.19155 0.57139,0.39849 0.88574,0.62477 0.20548,0.14663 0.4094,0.29769 0.61236,0.45268 0.20297,0.155 0.4046,0.31412 0.60462,0.47698 0.40003,0.32571 0.79411,0.6664 1.17977,1.02061 0.38566,0.35421 0.76333,0.72195 1.1312,1.10071 0.36786,0.37876 0.72564,0.76852 1.07228,1.16788 0.34664,0.399359 0.68209,0.808199 1.00408,1.224223 0.32198,0.41601 0.63058,0.83942 0.92449,1.26814 0.2939,0.42871 0.57269,0.86271 0.83509,1.30018 0.13119,0.21873 0.25869,0.43817 0.38137,0.65835 0.12268,0.22019 0.24077,0.44084 0.3545,0.66198 0.2934,0.57048 0.56166,1.11292 0.80719,1.634 0.24552,0.52109 0.4684,1.02093 0.67024,1.50792 0.20184,0.48699 0.38286,0.96066 0.54519,1.42886 0.0812,0.23409 0.15736,0.46691 0.22944,0.69918 0.0721,0.23227 0.1401,0.46424 0.2036,0.6966 0.0635,0.23235 0.12283,0.46534 0.17829,0.6997 0.0555,0.23435 0.10709,0.47021 0.15503,0.70848 0.0959,0.47653 0.17707,0.9624 0.24598,1.46606 0.0689,0.50366 0.12543,1.02488 0.17156,1.57096 0.0461,0.54609 0.082,1.11753 0.10956,1.72135 0.0204,0.44657 0.0346,0.88054 0.0419,1.30482 0.007,0.42429 0.008,0.8385 5.1e-4,1.24489 -0.007,0.40639 -0.022,0.80498 -0.045,1.19786 -0.023,0.39288 -0.0544,0.78 -0.0946,1.16375 -0.0402,0.38375 -0.0895,0.76407 -0.14831,1.14309 -0.0588,0.37901 -0.12693,0.75667 -0.20567,1.13533 -0.0787,0.37865 -0.16812,0.75833 -0.2682,1.14101 -0.10008,0.38269 -0.21104,0.76852 -0.33383,1.15962 -0.12279,0.39111 -0.25722,0.78775 -0.40411,1.19166 -0.14688,0.40391 -0.30617,0.81501 -0.47852,1.2361 -0.17236,0.4211 -0.35788,0.85183 -0.55707,1.2945 -0.1992,0.44266 -0.41182,0.89769 -0.63924,1.36632 -0.22742,0.46863 -0.46955,0.95107 -0.72657,1.45004 -0.25702,0.49898 -0.52901,1.01401 -0.817,1.54771 -0.288,0.5337 -0.59174,1.08599 -0.9121,1.65881 -0.32035,0.57283 -0.65722,1.16651 -1.0113,1.78284 -0.51856,0.87562 -1.03369,1.73426 -1.54461,2.57607 -0.51092,0.84181 -1.01808,1.66687 -1.52136,2.4753 -0.50327,0.80843 -1.00246,1.60008 -1.4981,2.37557 -0.49564,0.77548 -0.98736,1.5344 -1.47536,2.27738 -0.488,0.74297 -0.97226,1.46985 -1.45262,2.18074 -0.48037,0.7109 -0.95716,1.4059 -1.42989,2.08515 -0.47273,0.67925 -0.94154,1.34305 -1.40663,1.99109 -0.4651,0.64804 -0.92644,1.2803 -1.3839,1.89756 -0.45746,0.61726 -0.91081,1.21918 -1.36064,1.80609 -0.44982,0.58691 -0.89622,1.15918 -1.33842,1.71617 -0.44219,0.557 -0.8806,1.09875 -1.31516,1.62626 -0.0219,0.0266 -0.0432,0.051 -0.0651,0.0775 1.81453,-0.25165 9.01417,-6.51807 12.76563,-11.12956 8.5941,-10.56399 12.99952,-23.07404 11.68456,-33.17953 -1.20223,-9.23918 -5.38978,-16.783353 -13.17077,-23.726723 -1.93172,-1.72377 -2.14508,-1.49298 -2.70733,-1.32291 -1.92707,1.14579 -2.14761,1.048007 -0.84748,1.75253 z"
       sodipodi:nodetypes="cssscssssssssssssssssssssssssssssssssssscsssssssssssccsscc" />
    <path
       style="fill:none;fill-opacity:1;stroke:#000000;stroke-width:0.5;stroke-miterlimit:4;stroke-dasharray:none;stroke-opacity:1"
       d="m 100.81415,134.55672 c -2.613864,-0.11093 -2.896844,0.31251 -4.813676,-1.43755 -1.8001,-1.90704 -2.224465,-2.79101 -2.24341,-4.51313 -0.01966,-1.78671 0.0581,-1.99561 1.60434,-5.63226 3.30378,-7.77016 7.260176,-15.56447 9.109986,-17.94715 2.77204,-3.57059 6.7396,-6.179423 11.18926,-7.521773 3.34849,-1.01016 9.09281,-0.86199 12.68493,0.32721 11.38024,3.767503 17.47147,15.775673 13.71295,27.033553 -2.20249,6.59712 -5.72057,10.16997 -9.8469,10.16997 z"
       id="path3272"
       sodipodi:nodetypes="ccsssssscc" />
    <path
       style="fill:none;fill-opacity:1;stroke:#000000;stroke-width:0.377953;stroke-linecap:round;stroke-linejoin:round;stroke-miterlimit:4;stroke-dasharray:none;stroke-opacity:1;paint-order:fill markers stroke;stop-color:#000000"
       id="path16756"
       sodipodi:type="arc"
       sodipodi:cx="97.313911"
       sodipodi:cy="141.57806"
       sodipodi:rx="1.5739406"
       sodipodi:ry="1.5739406"
       sodipodi:start="0.57990659"
       sodipodi:end="0.54828965"
       sodipodi:arc-type="arc"
       d="m 98.630535,142.4405 a 1.5739406,1.5739406 0 0 1 -2.168624,0.46096 1.5739406,1.5739406 0 0 1 -0.478091,-2.16491 1.5739406,1.5739406 0 0 1 2.161065,-0.49519 1.5739406,1.5739406 0 0 1 0.512255,2.15709"
       sodipodi:open="true" />
    <path
       id="rect20090"
       style="fill:none;fill-opacity:1;stroke:#000000;stroke-width:0.5;stroke-linecap:round;stroke-linejoin:round;stroke-opacity:1;paint-order:fill markers stroke;stop-color:#000000"
       d="m 98.542336,130.27149 31.024354,0.54286 c 1.17552,0.0206 2.12219,0.94649 2.12219,2.12218 0,1.1757 -0.94667,2.14276 -2.12219,2.12219 l -31.024354,-0.54286 c -1.175513,-0.0206 -2.122189,-0.94649 -2.122189,-2.12219 0,-1.17569 0.946676,-2.14275 2.122189,-2.12218 z"
       sodipodi:nodetypes="sssssss" />
    <path
       style="fill:none;fill-opacity:1;stroke:#000000;stroke-width:0.5;stroke-miterlimit:4;stroke-dasharray:none;stroke-opacity:1"
       d="m 95.913493,179.95992 c -5.06264,-1.04405 -10.8119,-4.79262 -13.62787,-8.88549 -4.297169,-6.24572 -5.356359,-12.81158 -3.341019,-20.71068 3.609809,-14.14857 14.086349,-39.6859 19.638949,-47.87138 3.969187,-5.851261 9.298937,-9.722411 16.097997,-11.692431 2.30613,-0.6682 4.45831,-0.93852 7.86666,-1.00422 1.97685,-0.03811 5.29289,0.29142 8.44033,1.37883 3.93773,1.33876 5.19157,1.825243 7.70631,3.635523 3.28778,2.34611 6.39237,5.783278 8.21204,9.321468 2.34718,4.56389 3.17486,7.43793 3.3952,12.26847 0.32592,7.14516 -0.95256,11.19873 -6.6179,21.05994 -8.13144,13.33839 -9.93436,16.02958 -19.23356,27.24303 -1.88331,2.37684 -5.10587,6.0049 -7.16123,8.06236 -3.02143,3.0245 -4.24368,3.98612 -6.38286,5.02178 -4.8517,2.34889 -10.30616,3.13935 -14.993047,2.1728 z"
       id="path5762"
       sodipodi:nodetypes="ssssssccssccsss" />
  </g>
</svg>
