<?xml version="1.0" encoding="UTF-8" standalone="no"?>
<svg
   xmlns:dc="http://purl.org/dc/elements/1.1/"
   xmlns:cc="http://creativecommons.org/ns#"
   xmlns:rdf="http://www.w3.org/1999/02/22-rdf-syntax-ns#"
   xmlns:svg="http://www.w3.org/2000/svg"
   xmlns="http://www.w3.org/2000/svg"
   xmlns:sodipodi="http://sodipodi.sourceforge.net/DTD/sodipodi-0.dtd"
   xmlns:inkscape="http://www.inkscape.org/namespaces/inkscape"
   enable-background="new 0 0 24 24"
   height="24"
   viewBox="0 0 24 24"
   width="24"
   version="1.1"
   id="svg12"
   sodipodi:docname="sports_badmington.svg"
   inkscape:version="1.0.1 (3bc2e813f5, 2020-09-07)">
  <metadata
     id="metadata18">
    <rdf:RDF>
      <cc:Work
         rdf:about="">
        <dc:format>image/svg+xml</dc:format>
        <dc:type
           rdf:resource="http://purl.org/dc/dcmitype/StillImage" />
        <dc:title></dc:title>
      </cc:Work>
    </rdf:RDF>
  </metadata>
  <defs
     id="defs16" />
  <sodipodi:namedview
     pagecolor="#ffffff"
     bordercolor="#666666"
     borderopacity="1"
     objecttolerance="10"
     gridtolerance="10"
     guidetolerance="10"
     inkscape:pageopacity="0"
     inkscape:pageshadow="2"
     inkscape:window-width="1920"
     inkscape:window-height="1042"
     id="namedview14"
     showgrid="false"
     inkscape:zoom="11.092738"
     inkscape:cx="37.162384"
     inkscape:cy="25.090418"
     inkscape:window-x="0"
     inkscape:window-y="38"
     inkscape:window-maximized="1"
     inkscape:current-layer="svg12" />
  <g
     id="g4">
    <rect
       fill="none"
       height="24"
       width="24"
       id="rect2" />
  </g>
  <path
     d="m 19.950218,3.6501062 c -2.34,-2.34 -6.62,-1.87 -9.55,1.06 -1.6,1.6 -2.52,3.87 -2.54,5.4599998 -0.02,1.580001 0.26,3.890001 -1.35,5.500001 l -4.24,4.24 1.42,1.42 4.24,-4.24 c 1.61,-1.61 3.92,-1.33 5.5,-1.35 1.58,-0.02 3.86,-0.94 5.46,-2.54 2.92,-2.930001 3.4,-7.2100008 1.06,-9.5500008 z m -9.2,9.1900008 c -1.53,-1.53 -1.05,-4.6100008 1.06,-6.7200008 2.11,-2.11 5.18,-2.59 6.72,-1.06 1.53,1.53 1.05,4.61 -1.06,6.7200008 -2.11,2.11 -5.18,2.59 -6.72,1.06 z"
     id="path6"
     style="fill:none;fill-opacity:1;stroke:#000000;stroke-width:1;stroke-miterlimit:4;stroke-dasharray:none;stroke-opacity:1" />
  <g
     id="g912"
     transform="translate(0.23401207,-0.05573492)"
     style="stroke-width:1;stroke-miterlimit:4;stroke-dasharray:none">
    <path
       d="m 21.377568,21.02156 c 0.09302,0 0.182529,0.03675 0.247467,0.10325 0.136896,0.1365 0.136896,0.35875 0,0.49525 -0.06494,0.06475 -0.154447,0.1015 -0.247467,0.1015 -0.09302,0 -0.182529,-0.03675 -0.247467,-0.10325 -0.136896,-0.1365 -0.136896,-0.35875 0,-0.49525 0.06494,-0.06475 0.154448,-0.1015 0.247467,-0.1015 m 0,-0.35 c -0.179019,0 -0.359793,0.06825 -0.496689,0.20475 -0.273793,0.273 -0.273793,0.71575 0,0.9905 0.136896,0.1365 0.31767,0.20475 0.496689,0.20475 0.179019,0 0.359793,-0.06825 0.496689,-0.20475 0.273793,-0.273 0.273793,-0.71575 0,-0.9905 -0.136896,-0.1365 -0.31767,-0.20475 -0.496689,-0.20475 z"
       id="path8"
       style="fill:none;fill-opacity:1;stroke:#000000;stroke-width:1;stroke-miterlimit:4;stroke-dasharray:none;stroke-opacity:1" />
    <path
       style="fill:none;fill-rule:evenodd;stroke:#000000;stroke-width:1;stroke-linecap:butt;stroke-linejoin:miter;stroke-miterlimit:4;stroke-dasharray:none;stroke-opacity:1"
       d="M 20.944499,21.92275 15.722053,19.209022"
       id="path892"
       sodipodi:nodetypes="cc" />
    <path
       style="fill:none;fill-rule:evenodd;stroke:#000000;stroke-width:1;stroke-linecap:butt;stroke-linejoin:miter;stroke-miterlimit:4;stroke-dasharray:none;stroke-opacity:1"
       d="M 22.004584,21.06064 18.758901,15.993056"
       id="path892-5"
       sodipodi:nodetypes="cc" />
  </g>
</svg>
