<?xml version="1.0" encoding="UTF-8" standalone="no"?>
<!-- Created with Inkscape (http://www.inkscape.org/) -->

<svg
   width="34.999996mm"
   height="67.499672mm"
   viewBox="0 0 34.999996 67.499672"
   version="1.1"
   id="svg1584"
   inkscape:version="1.1.1 (3bf5ae0d25, 2021-09-20)"
   sodipodi:docname="tws_bud.svg"
   xmlns:inkscape="http://www.inkscape.org/namespaces/inkscape"
   xmlns:sodipodi="http://sodipodi.sourceforge.net/DTD/sodipodi-0.dtd"
   xmlns="http://www.w3.org/2000/svg"
   xmlns:svg="http://www.w3.org/2000/svg">
  <sodipodi:namedview
     id="namedview1586"
     pagecolor="#ffffff"
     bordercolor="#666666"
     borderopacity="1.0"
     inkscape:pageshadow="2"
     inkscape:pageopacity="0.0"
     inkscape:pagecheckerboard="0"
     inkscape:document-units="mm"
     showgrid="false"
     showguides="true"
     inkscape:guide-bbox="true"
     fit-margin-top="5"
     fit-margin-left="5"
     fit-margin-right="5"
     fit-margin-bottom="5"
     inkscape:zoom="1.7965552"
     inkscape:cx="20.873281"
     inkscape:cy="96.017091"
     inkscape:window-width="1920"
     inkscape:window-height="1035"
     inkscape:window-x="0"
     inkscape:window-y="45"
     inkscape:window-maximized="1"
     inkscape:current-layer="layer1">
    <sodipodi:guide
       position="56.822358,-42.871949"
       orientation="0,-1"
       id="guide12345" />
    <sodipodi:guide
       position="44.960927,-48.473189"
       orientation="1,0"
       id="guide12613" />
    <sodipodi:guide
       position="62.862338,-51.411219"
       orientation="1,0"
       id="guide12653" />
    <sodipodi:guide
       position="55.621618,-48.425059"
       orientation="0,-1"
       id="guide13329" />
  </sodipodi:namedview>
  <defs
     id="defs1581" />
  <g
     inkscape:label="Layer 1"
     inkscape:groupmode="layer"
     id="layer1"
     transform="translate(-57.520553,-52.18693)">
    <path
       style="fill:none;fill-rule:evenodd;stroke:#000000;stroke-width:2;stroke-linecap:butt;stroke-linejoin:miter;stroke-miterlimit:4;stroke-dasharray:none;stroke-opacity:1"
       d="m 66.393093,113.75676 c 0,0 -2.756884,-1.09093 -2.872459,-3.68865 l 0.142728,-39.164751 c 0.01936,-5.31142 3.361305,-12.810634 11.661174,-12.715563 6.576003,0.07532 11.083155,1.743367 11.108851,5.086109 l 0.08706,11.325221 c 0.04024,5.235233 -11.549838,8.121118 -14.518479,6.272204 -2.668401,-1.661919 -2.100534,7.911615 -2.100534,7.911615"
       id="path1690"
       sodipodi:nodetypes="ccsssssc" />
    <path
       id="rect9302"
       style="fill:none;stroke:#000000;stroke-width:2;stroke-linecap:round;stroke-linejoin:round;paint-order:fill markers stroke;stop-color:#000000"
       d="m 72.801341,91.173713 h 2.007465 c 0,0 0,-1.120076 0,-1.680114 h 5.186597 v 1.665678 l 2.076559,0.01443 c 1.462007,0.01017 2.63906,1.218552 2.63906,2.732177 v 15.226926 c 0,1.51363 -1.177022,2.73218 -2.63906,2.73218 h -9.270621 c -1.462039,0 -2.63906,-1.21855 -2.63906,-2.73218 V 93.905881 c 0,-1.513625 1.177021,-2.732177 2.63906,-2.732177 z"
       sodipodi:nodetypes="sccccssssssss" />
  </g>
</svg>
